<mxfile host="app.diagrams.net" modified="2023-05-07T11:52:44.280Z" agent="Mozilla/5.0 (Windows NT 10.0; Win64; x64) AppleWebKit/537.36 (KHTML, like Gecko) Chrome/112.0.0.0 Safari/537.36" etag="-c1GyAjYeyLlZi6TY_8i" version="21.2.9" type="github" pages="3">
  <diagram id="C5RBs43oDa-KdzZeNtuy" name="Page-1">
    <mxGraphModel dx="1709" dy="919" grid="1" gridSize="10" guides="1" tooltips="1" connect="1" arrows="1" fold="1" page="1" pageScale="1" pageWidth="827" pageHeight="1169" math="0" shadow="0">
      <root>
        <mxCell id="WIyWlLk6GJQsqaUBKTNV-0" />
        <mxCell id="WIyWlLk6GJQsqaUBKTNV-1" parent="WIyWlLk6GJQsqaUBKTNV-0" />
        <mxCell id="BHgu736OFygUR0V6wJeC-17" style="edgeStyle=orthogonalEdgeStyle;rounded=0;orthogonalLoop=1;jettySize=auto;html=1;exitX=0.5;exitY=1;exitDx=0;exitDy=0;entryX=0.5;entryY=0;entryDx=0;entryDy=0;fontFamily=Helvetica;fontSize=12;fontColor=default;" parent="WIyWlLk6GJQsqaUBKTNV-1" source="WIyWlLk6GJQsqaUBKTNV-3" edge="1">
          <mxGeometry relative="1" as="geometry">
            <mxPoint x="260" y="200" as="targetPoint" />
          </mxGeometry>
        </mxCell>
        <mxCell id="WIyWlLk6GJQsqaUBKTNV-3" value="データセット取得" style="rounded=0;whiteSpace=wrap;html=1;fontSize=12;glass=0;strokeWidth=1;shadow=0;" parent="WIyWlLk6GJQsqaUBKTNV-1" vertex="1">
          <mxGeometry x="160" y="120" width="200" height="40" as="geometry" />
        </mxCell>
        <mxCell id="BHgu736OFygUR0V6wJeC-12" value="cilabo.developing.*.main" style="swimlane;horizontal=0;rounded=0;fontFamily=Helvetica;fontSize=12;strokeColor=#666666;fillColor=#f5f5f5;html=1;startSize=40;fontColor=#333333;" parent="WIyWlLk6GJQsqaUBKTNV-1" vertex="1">
          <mxGeometry x="60" y="100" width="440" height="160" as="geometry" />
        </mxCell>
        <mxCell id="BHgu736OFygUR0V6wJeC-13" value="cilabo.gbml.algorithm" style="swimlane;horizontal=0;rounded=0;fontFamily=Helvetica;fontSize=12;strokeColor=#666666;fillColor=#f5f5f5;html=1;startSize=40;fontColor=#333333;" parent="WIyWlLk6GJQsqaUBKTNV-1" vertex="1">
          <mxGeometry x="60" y="300" width="440" height="800" as="geometry" />
        </mxCell>
        <mxCell id="BHgu736OFygUR0V6wJeC-31" value="No" style="edgeStyle=orthogonalEdgeStyle;rounded=0;orthogonalLoop=1;jettySize=auto;html=1;exitX=0.5;exitY=1;exitDx=0;exitDy=0;entryX=0.5;entryY=0;entryDx=0;entryDy=0;fontFamily=Helvetica;fontSize=12;fontColor=default;" parent="BHgu736OFygUR0V6wJeC-13" source="BHgu736OFygUR0V6wJeC-23" target="BHgu736OFygUR0V6wJeC-27" edge="1">
          <mxGeometry relative="1" as="geometry" />
        </mxCell>
        <mxCell id="BHgu736OFygUR0V6wJeC-23" value="世代数が終了条件を満たすか" style="rhombus;whiteSpace=wrap;html=1;rounded=0;fontFamily=Helvetica;fontSize=12;fontColor=default;strokeColor=default;fillColor=default;" parent="BHgu736OFygUR0V6wJeC-13" vertex="1">
          <mxGeometry x="100" y="260" width="200" height="80" as="geometry" />
        </mxCell>
        <mxCell id="BHgu736OFygUR0V6wJeC-32" style="edgeStyle=orthogonalEdgeStyle;rounded=0;orthogonalLoop=1;jettySize=auto;html=1;exitX=0.5;exitY=1;exitDx=0;exitDy=0;entryX=0.5;entryY=0;entryDx=0;entryDy=0;fontFamily=Helvetica;fontSize=12;fontColor=default;" parent="BHgu736OFygUR0V6wJeC-13" source="BHgu736OFygUR0V6wJeC-27" target="BHgu736OFygUR0V6wJeC-28" edge="1">
          <mxGeometry relative="1" as="geometry" />
        </mxCell>
        <mxCell id="BHgu736OFygUR0V6wJeC-27" value="親個体 選択&lt;span style=&quot;color: rgba(0, 0, 0, 0); font-family: monospace; font-size: 0px; text-align: start;&quot;&gt;%3CmxGraphModel%3E%3Croot%3E%3CmxCell%20id%3D%220%22%2F%3E%3CmxCell%20id%3D%221%22%20parent%3D%220%22%2F%3E%3CmxCell%20id%3D%222%22%20value%3D%22%E5%88%9D%E6%9C%9F%E5%80%8B%E4%BD%93%E7%BE%A4%20%E8%A9%95%E4%BE%A1%22%20style%3D%22rounded%3D1%3BwhiteSpace%3Dwrap%3Bhtml%3D1%3B%22%20vertex%3D%221%22%20parent%3D%221%22%3E%3CmxGeometry%20x%3D%22160%22%20y%3D%22400%22%20width%3D%22200%22%20height%3D%2240%22%20as%3D%22geometry%22%2F%3E%3C%2FmxCell%3E%3C%2Froot%3E%3C%2FmxGraphModel%3E&lt;/span&gt;" style="shape=process;whiteSpace=wrap;html=1;backgroundOutline=1;fontFamily=Helvetica;fontSize=12;fontColor=default;align=center;strokeColor=default;fillColor=default;" parent="BHgu736OFygUR0V6wJeC-13" vertex="1">
          <mxGeometry x="100" y="380" width="200" height="40" as="geometry" />
        </mxCell>
        <mxCell id="BHgu736OFygUR0V6wJeC-28" value="子個体 生成" style="shape=process;whiteSpace=wrap;html=1;backgroundOutline=1;fontFamily=Helvetica;fontSize=12;fontColor=default;align=center;strokeColor=default;fillColor=default;" parent="BHgu736OFygUR0V6wJeC-13" vertex="1">
          <mxGeometry x="100" y="460" width="200" height="40" as="geometry" />
        </mxCell>
        <mxCell id="BHgu736OFygUR0V6wJeC-61" value="page-2" style="verticalLabelPosition=bottom;verticalAlign=top;html=1;shape=offPageConnector;rounded=0;size=0.5;fontFamily=Helvetica;fontSize=12;fontColor=default;strokeColor=default;fillColor=default;" parent="BHgu736OFygUR0V6wJeC-13" vertex="1">
          <mxGeometry x="320" y="20" width="40" height="40" as="geometry" />
        </mxCell>
        <mxCell id="__gQqcDuJKMaHwjbn-1Q-1" value="page-3" style="verticalLabelPosition=bottom;verticalAlign=top;html=1;shape=offPageConnector;rounded=0;size=0.5;fontFamily=Helvetica;fontSize=12;fontColor=default;strokeColor=default;fillColor=default;" parent="BHgu736OFygUR0V6wJeC-13" vertex="1">
          <mxGeometry x="320" y="100" width="40" height="40" as="geometry" />
        </mxCell>
        <mxCell id="__gQqcDuJKMaHwjbn-1Q-2" value="page-4" style="verticalLabelPosition=bottom;verticalAlign=top;html=1;shape=offPageConnector;rounded=0;size=0.5;fontFamily=Helvetica;fontSize=12;fontColor=default;strokeColor=default;fillColor=default;" parent="BHgu736OFygUR0V6wJeC-13" vertex="1">
          <mxGeometry x="320" y="380" width="40" height="40" as="geometry" />
        </mxCell>
        <mxCell id="__gQqcDuJKMaHwjbn-1Q-3" value="page-5" style="verticalLabelPosition=bottom;verticalAlign=top;html=1;shape=offPageConnector;rounded=0;size=0.5;fontFamily=Helvetica;fontSize=12;fontColor=default;strokeColor=default;fillColor=default;" parent="BHgu736OFygUR0V6wJeC-13" vertex="1">
          <mxGeometry x="320" y="460" width="40" height="40" as="geometry" />
        </mxCell>
        <mxCell id="__gQqcDuJKMaHwjbn-1Q-4" value="page-3" style="verticalLabelPosition=bottom;verticalAlign=top;html=1;shape=offPageConnector;rounded=0;size=0.5;fontFamily=Helvetica;fontSize=12;fontColor=default;strokeColor=default;fillColor=default;" parent="BHgu736OFygUR0V6wJeC-13" vertex="1">
          <mxGeometry x="320" y="540" width="40" height="40" as="geometry" />
        </mxCell>
        <mxCell id="__gQqcDuJKMaHwjbn-1Q-5" value="page-6" style="verticalLabelPosition=bottom;verticalAlign=top;html=1;shape=offPageConnector;rounded=0;size=0.5;fontFamily=Helvetica;fontSize=12;fontColor=default;strokeColor=default;fillColor=default;" parent="BHgu736OFygUR0V6wJeC-13" vertex="1">
          <mxGeometry x="320" y="700" width="40" height="40" as="geometry" />
        </mxCell>
        <mxCell id="TU5cB4Zb1eByCepZemKL-2" value="" style="edgeStyle=orthogonalEdgeStyle;rounded=0;orthogonalLoop=1;jettySize=auto;html=1;" edge="1" parent="BHgu736OFygUR0V6wJeC-13" source="TU5cB4Zb1eByCepZemKL-0" target="BHgu736OFygUR0V6wJeC-23">
          <mxGeometry relative="1" as="geometry" />
        </mxCell>
        <mxCell id="TU5cB4Zb1eByCepZemKL-0" value="未勝利個体削除" style="shape=process;whiteSpace=wrap;html=1;backgroundOutline=1;fontFamily=Helvetica;fontSize=12;fontColor=default;align=center;strokeColor=default;fillColor=default;" vertex="1" parent="BHgu736OFygUR0V6wJeC-13">
          <mxGeometry x="100" y="179" width="200" height="40" as="geometry" />
        </mxCell>
        <mxCell id="TU5cB4Zb1eByCepZemKL-3" value="未勝利個体削除" style="shape=process;whiteSpace=wrap;html=1;backgroundOutline=1;fontFamily=Helvetica;fontSize=12;fontColor=default;align=center;strokeColor=default;fillColor=default;" vertex="1" parent="BHgu736OFygUR0V6wJeC-13">
          <mxGeometry x="100" y="620" width="200" height="40" as="geometry" />
        </mxCell>
        <mxCell id="BHgu736OFygUR0V6wJeC-19" style="edgeStyle=orthogonalEdgeStyle;rounded=0;orthogonalLoop=1;jettySize=auto;html=1;exitX=0.5;exitY=1;exitDx=0;exitDy=0;entryX=0.5;entryY=0;entryDx=0;entryDy=0;fontFamily=Helvetica;fontSize=12;fontColor=default;" parent="WIyWlLk6GJQsqaUBKTNV-1" source="BHgu736OFygUR0V6wJeC-0" target="BHgu736OFygUR0V6wJeC-20" edge="1">
          <mxGeometry relative="1" as="geometry">
            <mxPoint x="260" y="280" as="targetPoint" />
          </mxGeometry>
        </mxCell>
        <mxCell id="BHgu736OFygUR0V6wJeC-0" value="最適化問題 条件初期化" style="rounded=0;whiteSpace=wrap;html=1;" parent="WIyWlLk6GJQsqaUBKTNV-1" vertex="1">
          <mxGeometry x="160" y="200" width="200" height="40" as="geometry" />
        </mxCell>
        <mxCell id="BHgu736OFygUR0V6wJeC-25" style="edgeStyle=orthogonalEdgeStyle;rounded=0;orthogonalLoop=1;jettySize=auto;html=1;exitX=0.5;exitY=1;exitDx=0;exitDy=0;entryX=0.5;entryY=0;entryDx=0;entryDy=0;fontFamily=Helvetica;fontSize=12;fontColor=default;" parent="WIyWlLk6GJQsqaUBKTNV-1" source="BHgu736OFygUR0V6wJeC-20" target="BHgu736OFygUR0V6wJeC-21" edge="1">
          <mxGeometry relative="1" as="geometry" />
        </mxCell>
        <mxCell id="BHgu736OFygUR0V6wJeC-20" value="初期個体群 生成" style="shape=process;whiteSpace=wrap;html=1;backgroundOutline=1;fontFamily=Helvetica;fontSize=12;fontColor=default;align=center;strokeColor=default;fillColor=default;" parent="WIyWlLk6GJQsqaUBKTNV-1" vertex="1">
          <mxGeometry x="160" y="320" width="200" height="40" as="geometry" />
        </mxCell>
        <mxCell id="TU5cB4Zb1eByCepZemKL-1" style="edgeStyle=orthogonalEdgeStyle;rounded=0;orthogonalLoop=1;jettySize=auto;html=1;entryX=0.5;entryY=0;entryDx=0;entryDy=0;" edge="1" parent="WIyWlLk6GJQsqaUBKTNV-1" source="BHgu736OFygUR0V6wJeC-21" target="TU5cB4Zb1eByCepZemKL-0">
          <mxGeometry relative="1" as="geometry" />
        </mxCell>
        <mxCell id="BHgu736OFygUR0V6wJeC-21" value="初期個体群 評価" style="shape=process;whiteSpace=wrap;html=1;backgroundOutline=1;fontFamily=Helvetica;fontSize=12;fontColor=default;align=center;strokeColor=default;fillColor=default;" parent="WIyWlLk6GJQsqaUBKTNV-1" vertex="1">
          <mxGeometry x="160" y="400" width="200" height="40" as="geometry" />
        </mxCell>
        <mxCell id="BHgu736OFygUR0V6wJeC-36" style="edgeStyle=orthogonalEdgeStyle;rounded=0;orthogonalLoop=1;jettySize=auto;html=1;exitX=0.5;exitY=1;exitDx=0;exitDy=0;entryX=0.5;entryY=0;entryDx=0;entryDy=0;fontFamily=Helvetica;fontSize=12;fontColor=default;" parent="WIyWlLk6GJQsqaUBKTNV-1" source="BHgu736OFygUR0V6wJeC-29" target="TU5cB4Zb1eByCepZemKL-3" edge="1">
          <mxGeometry relative="1" as="geometry" />
        </mxCell>
        <mxCell id="BHgu736OFygUR0V6wJeC-29" value="子個体群 評価" style="shape=process;whiteSpace=wrap;html=1;backgroundOutline=1;fontFamily=Helvetica;fontSize=12;fontColor=default;align=center;strokeColor=default;fillColor=default;" parent="WIyWlLk6GJQsqaUBKTNV-1" vertex="1">
          <mxGeometry x="160" y="840" width="200" height="40" as="geometry" />
        </mxCell>
        <mxCell id="BHgu736OFygUR0V6wJeC-42" style="edgeStyle=orthogonalEdgeStyle;rounded=0;orthogonalLoop=1;jettySize=auto;html=1;exitX=0;exitY=0.5;exitDx=0;exitDy=0;entryX=0;entryY=0.5;entryDx=0;entryDy=0;fontFamily=Helvetica;fontSize=12;fontColor=default;" parent="WIyWlLk6GJQsqaUBKTNV-1" source="BHgu736OFygUR0V6wJeC-30" target="BHgu736OFygUR0V6wJeC-23" edge="1">
          <mxGeometry relative="1" as="geometry">
            <Array as="points">
              <mxPoint x="120" y="1020" />
              <mxPoint x="120" y="600" />
            </Array>
          </mxGeometry>
        </mxCell>
        <mxCell id="BHgu736OFygUR0V6wJeC-30" value="子個体群更新・環境選択" style="shape=process;whiteSpace=wrap;html=1;backgroundOutline=1;fontFamily=Helvetica;fontSize=12;fontColor=default;align=center;strokeColor=default;fillColor=default;" parent="WIyWlLk6GJQsqaUBKTNV-1" vertex="1">
          <mxGeometry x="160" y="1000" width="200" height="40" as="geometry" />
        </mxCell>
        <mxCell id="BHgu736OFygUR0V6wJeC-33" style="edgeStyle=orthogonalEdgeStyle;rounded=0;orthogonalLoop=1;jettySize=auto;html=1;exitX=0.5;exitY=1;exitDx=0;exitDy=0;entryX=0.5;entryY=0;entryDx=0;entryDy=0;fontFamily=Helvetica;fontSize=12;fontColor=default;" parent="WIyWlLk6GJQsqaUBKTNV-1" source="BHgu736OFygUR0V6wJeC-28" target="BHgu736OFygUR0V6wJeC-29" edge="1">
          <mxGeometry relative="1" as="geometry" />
        </mxCell>
        <mxCell id="BHgu736OFygUR0V6wJeC-47" value="cilabo.developing.*.main" style="swimlane;horizontal=0;rounded=0;fontFamily=Helvetica;fontSize=12;strokeColor=#666666;fillColor=#f5f5f5;html=1;startSize=40;fontColor=#333333;" parent="WIyWlLk6GJQsqaUBKTNV-1" vertex="1">
          <mxGeometry x="60" y="1140" width="440" height="160" as="geometry" />
        </mxCell>
        <mxCell id="BHgu736OFygUR0V6wJeC-45" value="実験結果 出力" style="rounded=0;whiteSpace=wrap;html=1;" parent="BHgu736OFygUR0V6wJeC-47" vertex="1">
          <mxGeometry x="100" y="20" width="200" height="40" as="geometry" />
        </mxCell>
        <mxCell id="BHgu736OFygUR0V6wJeC-55" value="Yes" style="edgeStyle=orthogonalEdgeStyle;rounded=0;orthogonalLoop=1;jettySize=auto;html=1;exitX=1;exitY=0.5;exitDx=0;exitDy=0;entryX=0.5;entryY=0;entryDx=0;entryDy=0;fontFamily=Helvetica;fontSize=12;fontColor=default;" parent="WIyWlLk6GJQsqaUBKTNV-1" source="BHgu736OFygUR0V6wJeC-23" target="BHgu736OFygUR0V6wJeC-45" edge="1">
          <mxGeometry x="-0.9355" relative="1" as="geometry">
            <Array as="points">
              <mxPoint x="460" y="600" />
              <mxPoint x="460" y="1080" />
              <mxPoint x="260" y="1080" />
            </Array>
            <mxPoint as="offset" />
          </mxGeometry>
        </mxCell>
        <mxCell id="BHgu736OFygUR0V6wJeC-57" value="" style="edgeStyle=orthogonalEdgeStyle;rounded=0;orthogonalLoop=1;jettySize=auto;html=1;fontFamily=Helvetica;fontSize=12;fontColor=default;" parent="WIyWlLk6GJQsqaUBKTNV-1" source="BHgu736OFygUR0V6wJeC-56" target="WIyWlLk6GJQsqaUBKTNV-3" edge="1">
          <mxGeometry relative="1" as="geometry" />
        </mxCell>
        <mxCell id="BHgu736OFygUR0V6wJeC-56" value="start" style="rounded=1;whiteSpace=wrap;html=1;fontFamily=Helvetica;fontSize=12;fontColor=default;strokeColor=default;fillColor=default;" parent="WIyWlLk6GJQsqaUBKTNV-1" vertex="1">
          <mxGeometry x="160" y="40" width="200" height="40" as="geometry" />
        </mxCell>
        <mxCell id="BHgu736OFygUR0V6wJeC-59" value="end" style="rounded=1;whiteSpace=wrap;html=1;fontFamily=Helvetica;fontSize=12;fontColor=default;strokeColor=default;fillColor=default;" parent="WIyWlLk6GJQsqaUBKTNV-1" vertex="1">
          <mxGeometry x="160" y="1240" width="200" height="40" as="geometry" />
        </mxCell>
        <mxCell id="BHgu736OFygUR0V6wJeC-60" value="" style="edgeStyle=orthogonalEdgeStyle;rounded=0;orthogonalLoop=1;jettySize=auto;html=1;fontFamily=Helvetica;fontSize=12;fontColor=default;" parent="WIyWlLk6GJQsqaUBKTNV-1" source="BHgu736OFygUR0V6wJeC-45" target="BHgu736OFygUR0V6wJeC-59" edge="1">
          <mxGeometry relative="1" as="geometry" />
        </mxCell>
        <mxCell id="TU5cB4Zb1eByCepZemKL-4" style="edgeStyle=orthogonalEdgeStyle;rounded=0;orthogonalLoop=1;jettySize=auto;html=1;entryX=0.5;entryY=0;entryDx=0;entryDy=0;" edge="1" parent="WIyWlLk6GJQsqaUBKTNV-1" source="TU5cB4Zb1eByCepZemKL-3" target="BHgu736OFygUR0V6wJeC-30">
          <mxGeometry relative="1" as="geometry" />
        </mxCell>
      </root>
    </mxGraphModel>
  </diagram>
  <diagram id="KKgAk1HdpqCOO54ovuoK" name="ページ2">
    <mxGraphModel dx="1709" dy="919" grid="1" gridSize="10" guides="1" tooltips="1" connect="1" arrows="1" fold="1" page="1" pageScale="1" pageWidth="850" pageHeight="1100" math="0" shadow="0">
      <root>
        <mxCell id="0" />
        <mxCell id="1" parent="0" />
        <mxCell id="mpJxmCXZN_PUPqpWL8yS-92" value="org.uma.jmetal.component.initialsolutioncreation.impl" style="swimlane;horizontal=0;rounded=0;fontFamily=Helvetica;fontSize=12;fontColor=#333333;strokeColor=#666666;fillColor=#f5f5f5;html=1;arcSize=0;" parent="1" vertex="1">
          <mxGeometry x="40" y="40" width="320" height="420" as="geometry" />
        </mxCell>
        <mxCell id="mpJxmCXZN_PUPqpWL8yS-91" value="" style="edgeStyle=orthogonalEdgeStyle;rounded=0;orthogonalLoop=1;jettySize=auto;html=1;fontFamily=Helvetica;fontSize=12;fontColor=default;" parent="mpJxmCXZN_PUPqpWL8yS-92" source="mpJxmCXZN_PUPqpWL8yS-89" target="mpJxmCXZN_PUPqpWL8yS-87" edge="1">
          <mxGeometry relative="1" as="geometry" />
        </mxCell>
        <mxCell id="mpJxmCXZN_PUPqpWL8yS-96" value="" style="edgeStyle=orthogonalEdgeStyle;rounded=0;orthogonalLoop=1;jettySize=auto;html=1;fontFamily=Helvetica;fontSize=12;fontColor=default;" parent="mpJxmCXZN_PUPqpWL8yS-92" source="mpJxmCXZN_PUPqpWL8yS-87" target="mpJxmCXZN_PUPqpWL8yS-95" edge="1">
          <mxGeometry relative="1" as="geometry" />
        </mxCell>
        <mxCell id="mpJxmCXZN_PUPqpWL8yS-87" value="end" style="strokeWidth=2;html=1;shape=mxgraph.flowchart.loop_limit;whiteSpace=wrap;rounded=1;fontFamily=Helvetica;fontSize=12;fontColor=default;fillColor=default;flipV=1;" parent="mpJxmCXZN_PUPqpWL8yS-92" vertex="1">
          <mxGeometry x="60" y="260" width="200" height="40" as="geometry" />
        </mxCell>
        <mxCell id="gJbNcLRhqNEW6QgsCG9P-2" value="初期個体群 生成" style="shape=process;whiteSpace=wrap;html=1;backgroundOutline=1;fontFamily=Helvetica;fontSize=12;fontColor=#333333;align=center;strokeColor=#666666;fillColor=#f5f5f5;" parent="mpJxmCXZN_PUPqpWL8yS-92" vertex="1">
          <mxGeometry x="60" y="20" width="200" height="40" as="geometry" />
        </mxCell>
        <mxCell id="mpJxmCXZN_PUPqpWL8yS-95" value="ende" style="rounded=1;whiteSpace=wrap;html=1;fontFamily=Helvetica;fontSize=12;fontColor=default;strokeColor=default;fillColor=default;" parent="mpJxmCXZN_PUPqpWL8yS-92" vertex="1">
          <mxGeometry x="60" y="340" width="200" height="40" as="geometry" />
        </mxCell>
        <mxCell id="gJbNcLRhqNEW6QgsCG9P-1" value="" style="edgeStyle=orthogonalEdgeStyle;rounded=0;orthogonalLoop=1;jettySize=auto;html=1;fontFamily=Helvetica;fontSize=12;fontColor=default;" parent="mpJxmCXZN_PUPqpWL8yS-92" source="gJbNcLRhqNEW6QgsCG9P-2" target="mpJxmCXZN_PUPqpWL8yS-86" edge="1">
          <mxGeometry relative="1" as="geometry" />
        </mxCell>
        <mxCell id="mpJxmCXZN_PUPqpWL8yS-90" value="" style="edgeStyle=orthogonalEdgeStyle;rounded=0;orthogonalLoop=1;jettySize=auto;html=1;fontFamily=Helvetica;fontSize=12;fontColor=default;" parent="mpJxmCXZN_PUPqpWL8yS-92" source="mpJxmCXZN_PUPqpWL8yS-86" target="mpJxmCXZN_PUPqpWL8yS-89" edge="1">
          <mxGeometry relative="1" as="geometry" />
        </mxCell>
        <mxCell id="mpJxmCXZN_PUPqpWL8yS-86" value="i=0; i&amp;lt;個体数; i++" style="strokeWidth=2;html=1;shape=mxgraph.flowchart.loop_limit;whiteSpace=wrap;rounded=1;fontFamily=Helvetica;fontSize=12;fontColor=default;fillColor=default;" parent="mpJxmCXZN_PUPqpWL8yS-92" vertex="1">
          <mxGeometry x="60" y="100" width="200" height="40" as="geometry" />
        </mxCell>
        <mxCell id="mpJxmCXZN_PUPqpWL8yS-89" value="pittsuburgh型識別器を生成" style="shape=process;whiteSpace=wrap;html=1;backgroundOutline=1;fontFamily=Helvetica;fontSize=12;fontColor=#333333;align=center;strokeColor=#666666;fillColor=#f5f5f5;" parent="mpJxmCXZN_PUPqpWL8yS-92" vertex="1">
          <mxGeometry x="60" y="180" width="200" height="40" as="geometry" />
        </mxCell>
        <mxCell id="mpJxmCXZN_PUPqpWL8yS-99" value="" style="group" parent="1" vertex="1" connectable="0">
          <mxGeometry x="440" y="40" width="480" height="720" as="geometry" />
        </mxCell>
        <mxCell id="T1B7aWz5VTxmHe6bFBXT-15" value="add" style="edgeStyle=orthogonalEdgeStyle;rounded=0;orthogonalLoop=1;jettySize=auto;html=1;fontFamily=Helvetica;fontSize=12;fontColor=default;entryX=0;entryY=0.5;entryDx=0;entryDy=0;" parent="mpJxmCXZN_PUPqpWL8yS-99" target="T1B7aWz5VTxmHe6bFBXT-14" edge="1">
          <mxGeometry relative="1" as="geometry">
            <mxPoint x="259" y="440" as="sourcePoint" />
            <mxPoint x="339" y="480" as="targetPoint" />
          </mxGeometry>
        </mxCell>
        <mxCell id="mpJxmCXZN_PUPqpWL8yS-1" value="org.uma.jmetal.problem.integerproblem.impl.createSolution" style="swimlane;horizontal=0;rounded=0;fontFamily=Helvetica;fontSize=12;strokeColor=#666666;fillColor=#f5f5f5;html=1;startSize=20;fontColor=#333333;" parent="mpJxmCXZN_PUPqpWL8yS-99" vertex="1">
          <mxGeometry width="480" height="720" as="geometry" />
        </mxCell>
        <mxCell id="mpJxmCXZN_PUPqpWL8yS-50" value="" style="edgeStyle=orthogonalEdgeStyle;rounded=0;orthogonalLoop=1;jettySize=auto;html=1;fontFamily=Helvetica;fontSize=12;fontColor=default;" parent="mpJxmCXZN_PUPqpWL8yS-1" source="mpJxmCXZN_PUPqpWL8yS-46" target="T1B7aWz5VTxmHe6bFBXT-3" edge="1">
          <mxGeometry relative="1" as="geometry" />
        </mxCell>
        <mxCell id="mpJxmCXZN_PUPqpWL8yS-46" value="i=0; i&amp;lt;ルール数; i++" style="strokeWidth=2;html=1;shape=mxgraph.flowchart.loop_limit;whiteSpace=wrap;rounded=1;fontFamily=Helvetica;fontSize=12;fontColor=default;fillColor=default;" parent="mpJxmCXZN_PUPqpWL8yS-1" vertex="1">
          <mxGeometry x="60" y="180" width="200" height="40" as="geometry" />
        </mxCell>
        <mxCell id="mpJxmCXZN_PUPqpWL8yS-51" value="" style="edgeStyle=orthogonalEdgeStyle;rounded=0;orthogonalLoop=1;jettySize=auto;html=1;fontFamily=Helvetica;fontSize=12;fontColor=default;" parent="mpJxmCXZN_PUPqpWL8yS-1" source="T1B7aWz5VTxmHe6bFBXT-9" target="mpJxmCXZN_PUPqpWL8yS-47" edge="1">
          <mxGeometry relative="1" as="geometry" />
        </mxCell>
        <mxCell id="T1B7aWz5VTxmHe6bFBXT-9" value="Michigan型識別器を生成" style="rounded=0;whiteSpace=wrap;html=1;fontFamily=Helvetica;fontSize=12;fontColor=default;strokeColor=default;fillColor=default;" parent="mpJxmCXZN_PUPqpWL8yS-1" vertex="1">
          <mxGeometry x="60" y="420" width="200" height="40" as="geometry" />
        </mxCell>
        <mxCell id="mpJxmCXZN_PUPqpWL8yS-110" style="edgeStyle=orthogonalEdgeStyle;rounded=0;orthogonalLoop=1;jettySize=auto;html=1;entryX=0;entryY=0.25;entryDx=0;entryDy=0;fontFamily=Helvetica;fontSize=12;fontColor=default;exitX=1;exitY=0.75;exitDx=0;exitDy=0;" parent="mpJxmCXZN_PUPqpWL8yS-1" source="T1B7aWz5VTxmHe6bFBXT-3" target="mpJxmCXZN_PUPqpWL8yS-108" edge="1">
          <mxGeometry relative="1" as="geometry" />
        </mxCell>
        <mxCell id="T1B7aWz5VTxmHe6bFBXT-3" value="ヒューリスティック法により&lt;br&gt;前件部を生成" style="shape=process;whiteSpace=wrap;html=1;backgroundOutline=1;fontFamily=Helvetica;fontSize=12;fontColor=#333333;align=center;strokeColor=#666666;fillColor=#f5f5f5;" parent="mpJxmCXZN_PUPqpWL8yS-1" vertex="1">
          <mxGeometry x="60" y="260" width="200" height="40" as="geometry" />
        </mxCell>
        <mxCell id="T1B7aWz5VTxmHe6bFBXT-6" value="信頼度を算出し，&lt;br&gt;後件部を生成" style="shape=process;whiteSpace=wrap;html=1;backgroundOutline=1;fontFamily=Helvetica;fontSize=12;fontColor=#333333;align=center;strokeColor=#666666;fillColor=#f5f5f5;" parent="mpJxmCXZN_PUPqpWL8yS-1" vertex="1">
          <mxGeometry x="60" y="340" width="200" height="40" as="geometry" />
        </mxCell>
        <mxCell id="T1B7aWz5VTxmHe6bFBXT-7" value="" style="edgeStyle=orthogonalEdgeStyle;rounded=0;orthogonalLoop=1;jettySize=auto;html=1;fontFamily=Helvetica;fontSize=12;fontColor=default;" parent="mpJxmCXZN_PUPqpWL8yS-1" source="T1B7aWz5VTxmHe6bFBXT-3" target="T1B7aWz5VTxmHe6bFBXT-6" edge="1">
          <mxGeometry relative="1" as="geometry" />
        </mxCell>
        <mxCell id="T1B7aWz5VTxmHe6bFBXT-13" value="" style="edgeStyle=orthogonalEdgeStyle;rounded=0;orthogonalLoop=1;jettySize=auto;html=1;fontFamily=Helvetica;fontSize=12;fontColor=default;" parent="mpJxmCXZN_PUPqpWL8yS-1" source="T1B7aWz5VTxmHe6bFBXT-6" target="T1B7aWz5VTxmHe6bFBXT-9" edge="1">
          <mxGeometry relative="1" as="geometry" />
        </mxCell>
        <mxCell id="mpJxmCXZN_PUPqpWL8yS-45" value="" style="group" parent="mpJxmCXZN_PUPqpWL8yS-1" vertex="1" connectable="0">
          <mxGeometry x="60" y="420" width="250" height="120" as="geometry" />
        </mxCell>
        <mxCell id="mpJxmCXZN_PUPqpWL8yS-47" value="end" style="strokeWidth=2;html=1;shape=mxgraph.flowchart.loop_limit;whiteSpace=wrap;rounded=1;fontFamily=Helvetica;fontSize=12;fontColor=default;fillColor=default;flipV=1;" parent="mpJxmCXZN_PUPqpWL8yS-45" vertex="1">
          <mxGeometry y="80" width="200" height="40" as="geometry" />
        </mxCell>
        <mxCell id="mpJxmCXZN_PUPqpWL8yS-102" value="" style="edgeStyle=orthogonalEdgeStyle;rounded=0;orthogonalLoop=1;jettySize=auto;html=1;fontFamily=Helvetica;fontSize=12;fontColor=default;" parent="mpJxmCXZN_PUPqpWL8yS-1" source="T1B7aWz5VTxmHe6bFBXT-16" target="mpJxmCXZN_PUPqpWL8yS-101" edge="1">
          <mxGeometry relative="1" as="geometry" />
        </mxCell>
        <mxCell id="T1B7aWz5VTxmHe6bFBXT-16" value="Pittsuburgh型識別器を生成" style="rounded=0;whiteSpace=wrap;html=1;fontFamily=Helvetica;fontSize=12;fontColor=default;strokeColor=default;fillColor=default;" parent="mpJxmCXZN_PUPqpWL8yS-1" vertex="1">
          <mxGeometry x="60" y="580" width="200" height="40" as="geometry" />
        </mxCell>
        <mxCell id="mpJxmCXZN_PUPqpWL8yS-52" value="" style="edgeStyle=orthogonalEdgeStyle;rounded=0;orthogonalLoop=1;jettySize=auto;html=1;fontFamily=Helvetica;fontSize=12;fontColor=default;" parent="mpJxmCXZN_PUPqpWL8yS-1" source="mpJxmCXZN_PUPqpWL8yS-47" target="T1B7aWz5VTxmHe6bFBXT-16" edge="1">
          <mxGeometry relative="1" as="geometry" />
        </mxCell>
        <mxCell id="T1B7aWz5VTxmHe6bFBXT-14" value="MichiganPopulation" style="shape=internalStorage;whiteSpace=wrap;html=1;backgroundOutline=1;rounded=0;fontFamily=Helvetica;fontSize=12;fontColor=default;strokeColor=default;fillColor=default;" parent="mpJxmCXZN_PUPqpWL8yS-1" vertex="1">
          <mxGeometry x="320" y="410" width="120" height="60" as="geometry" />
        </mxCell>
        <mxCell id="T1B7aWz5VTxmHe6bFBXT-18" style="edgeStyle=orthogonalEdgeStyle;rounded=0;orthogonalLoop=1;jettySize=auto;html=1;entryX=1;entryY=0.5;entryDx=0;entryDy=0;fontFamily=Helvetica;fontSize=12;fontColor=default;exitX=0.5;exitY=1;exitDx=0;exitDy=0;" parent="mpJxmCXZN_PUPqpWL8yS-1" source="T1B7aWz5VTxmHe6bFBXT-14" target="T1B7aWz5VTxmHe6bFBXT-16" edge="1">
          <mxGeometry relative="1" as="geometry">
            <Array as="points">
              <mxPoint x="380" y="600" />
            </Array>
          </mxGeometry>
        </mxCell>
        <mxCell id="mpJxmCXZN_PUPqpWL8yS-109" style="edgeStyle=orthogonalEdgeStyle;rounded=0;orthogonalLoop=1;jettySize=auto;html=1;entryX=1;entryY=0.25;entryDx=0;entryDy=0;fontFamily=Helvetica;fontSize=12;fontColor=default;exitX=0.5;exitY=1;exitDx=0;exitDy=0;" parent="mpJxmCXZN_PUPqpWL8yS-1" source="T1B7aWz5VTxmHe6bFBXT-1" target="T1B7aWz5VTxmHe6bFBXT-3" edge="1">
          <mxGeometry relative="1" as="geometry" />
        </mxCell>
        <mxCell id="T1B7aWz5VTxmHe6bFBXT-1" value="sampleIndex" style="shape=internalStorage;whiteSpace=wrap;html=1;backgroundOutline=1;rounded=0;fontFamily=Helvetica;fontSize=12;fontColor=default;strokeColor=default;fillColor=default;" parent="mpJxmCXZN_PUPqpWL8yS-1" vertex="1">
          <mxGeometry x="320" y="90" width="120" height="60" as="geometry" />
        </mxCell>
        <mxCell id="mpJxmCXZN_PUPqpWL8yS-97" value="pittsuburgh型識別器を生成" style="shape=process;whiteSpace=wrap;html=1;backgroundOutline=1;fontFamily=Helvetica;fontSize=12;fontColor=#333333;align=center;strokeColor=#666666;fillColor=#f5f5f5;" parent="mpJxmCXZN_PUPqpWL8yS-1" vertex="1">
          <mxGeometry x="60" y="20" width="200" height="40" as="geometry" />
        </mxCell>
        <mxCell id="mpJxmCXZN_PUPqpWL8yS-101" value="end" style="rounded=1;whiteSpace=wrap;html=1;fontFamily=Helvetica;fontSize=12;fontColor=default;strokeColor=default;fillColor=default;" parent="mpJxmCXZN_PUPqpWL8yS-1" vertex="1">
          <mxGeometry x="60" y="660" width="200" height="40" as="geometry" />
        </mxCell>
        <mxCell id="gJbNcLRhqNEW6QgsCG9P-3" value="データセットからランダムに&lt;br&gt;パターンを取得" style="rounded=0;whiteSpace=wrap;html=1;fontFamily=Helvetica;fontSize=12;fontColor=default;strokeColor=default;fillColor=default;align=center;" parent="mpJxmCXZN_PUPqpWL8yS-1" vertex="1">
          <mxGeometry x="60" y="100" width="200" height="40" as="geometry" />
        </mxCell>
        <mxCell id="mpJxmCXZN_PUPqpWL8yS-49" value="" style="edgeStyle=orthogonalEdgeStyle;rounded=0;orthogonalLoop=1;jettySize=auto;html=1;fontFamily=Helvetica;fontSize=12;fontColor=default;" parent="mpJxmCXZN_PUPqpWL8yS-1" source="gJbNcLRhqNEW6QgsCG9P-3" target="mpJxmCXZN_PUPqpWL8yS-46" edge="1">
          <mxGeometry relative="1" as="geometry" />
        </mxCell>
        <mxCell id="T1B7aWz5VTxmHe6bFBXT-2" value="" style="edgeStyle=orthogonalEdgeStyle;rounded=0;orthogonalLoop=1;jettySize=auto;html=1;fontFamily=Helvetica;fontSize=12;fontColor=default;" parent="mpJxmCXZN_PUPqpWL8yS-1" source="gJbNcLRhqNEW6QgsCG9P-3" target="T1B7aWz5VTxmHe6bFBXT-1" edge="1">
          <mxGeometry relative="1" as="geometry" />
        </mxCell>
        <mxCell id="mpJxmCXZN_PUPqpWL8yS-98" value="" style="edgeStyle=orthogonalEdgeStyle;rounded=0;orthogonalLoop=1;jettySize=auto;html=1;fontFamily=Helvetica;fontSize=12;fontColor=default;" parent="mpJxmCXZN_PUPqpWL8yS-1" source="mpJxmCXZN_PUPqpWL8yS-97" target="gJbNcLRhqNEW6QgsCG9P-3" edge="1">
          <mxGeometry relative="1" as="geometry" />
        </mxCell>
        <mxCell id="mpJxmCXZN_PUPqpWL8yS-111" style="edgeStyle=orthogonalEdgeStyle;rounded=0;orthogonalLoop=1;jettySize=auto;html=1;exitX=0;exitY=0.75;exitDx=0;exitDy=0;entryX=1;entryY=0.25;entryDx=0;entryDy=0;fontFamily=Helvetica;fontSize=12;fontColor=default;" parent="mpJxmCXZN_PUPqpWL8yS-1" source="mpJxmCXZN_PUPqpWL8yS-108" target="T1B7aWz5VTxmHe6bFBXT-6" edge="1">
          <mxGeometry relative="1" as="geometry" />
        </mxCell>
        <mxCell id="mpJxmCXZN_PUPqpWL8yS-108" value="antecedentIndex" style="shape=internalStorage;whiteSpace=wrap;html=1;backgroundOutline=1;rounded=0;fontFamily=Helvetica;fontSize=12;fontColor=default;strokeColor=default;fillColor=default;" parent="mpJxmCXZN_PUPqpWL8yS-1" vertex="1">
          <mxGeometry x="320" y="290" width="120" height="60" as="geometry" />
        </mxCell>
        <mxCell id="mpJxmCXZN_PUPqpWL8yS-83" value="cilabo.fuzzy.rule.antecedent.factory" style="swimlane;horizontal=0;rounded=0;fontFamily=Helvetica;fontSize=12;fontColor=#333333;strokeColor=#666666;fillColor=#f5f5f5;html=1;arcSize=0;" parent="1" vertex="1">
          <mxGeometry x="1000" y="40" width="960" height="1030" as="geometry" />
        </mxCell>
        <mxCell id="mpJxmCXZN_PUPqpWL8yS-14" value="&lt;span style=&quot;color: rgb(0, 0, 0);&quot;&gt;ヒューリスティック法により&lt;/span&gt;&lt;br style=&quot;color: rgb(0, 0, 0);&quot;&gt;&lt;span style=&quot;color: rgb(0, 0, 0);&quot;&gt;前件部を生成&lt;/span&gt;" style="shape=process;whiteSpace=wrap;html=1;backgroundOutline=1;fontFamily=Helvetica;fontSize=12;fontColor=#333333;align=center;strokeColor=#666666;fillColor=#f5f5f5;" parent="mpJxmCXZN_PUPqpWL8yS-83" vertex="1">
          <mxGeometry x="60" y="20" width="200" height="40" as="geometry" />
        </mxCell>
        <mxCell id="mpJxmCXZN_PUPqpWL8yS-16" value="Don&#39;t care 生成確率を算出" style="rounded=1;whiteSpace=wrap;html=1;fontFamily=Helvetica;fontSize=12;fontColor=default;strokeColor=default;fillColor=default;" parent="mpJxmCXZN_PUPqpWL8yS-83" vertex="1">
          <mxGeometry x="60" y="100" width="200" height="40" as="geometry" />
        </mxCell>
        <mxCell id="mpJxmCXZN_PUPqpWL8yS-17" value="Don&#39;t care を適用" style="rhombus;whiteSpace=wrap;html=1;rounded=0;fontFamily=Helvetica;fontSize=12;fontColor=default;strokeColor=default;fillColor=default;" parent="mpJxmCXZN_PUPqpWL8yS-83" vertex="1">
          <mxGeometry x="60" y="180" width="200" height="80" as="geometry" />
        </mxCell>
        <mxCell id="mpJxmCXZN_PUPqpWL8yS-27" value="" style="edgeStyle=orthogonalEdgeStyle;rounded=0;orthogonalLoop=1;jettySize=auto;html=1;fontFamily=Helvetica;fontSize=12;fontColor=default;" parent="mpJxmCXZN_PUPqpWL8yS-83" source="mpJxmCXZN_PUPqpWL8yS-16" target="mpJxmCXZN_PUPqpWL8yS-17" edge="1">
          <mxGeometry relative="1" as="geometry" />
        </mxCell>
        <mxCell id="mpJxmCXZN_PUPqpWL8yS-19" value="属性値が離散値である" style="rhombus;whiteSpace=wrap;html=1;fontFamily=Helvetica;fontSize=12;fontColor=default;align=center;strokeColor=default;fillColor=default;" parent="mpJxmCXZN_PUPqpWL8yS-83" vertex="1">
          <mxGeometry x="60" y="300" width="200" height="80" as="geometry" />
        </mxCell>
        <mxCell id="mpJxmCXZN_PUPqpWL8yS-28" value="No" style="edgeStyle=orthogonalEdgeStyle;rounded=0;orthogonalLoop=1;jettySize=auto;html=1;fontFamily=Helvetica;fontSize=12;fontColor=default;" parent="mpJxmCXZN_PUPqpWL8yS-83" source="mpJxmCXZN_PUPqpWL8yS-17" target="mpJxmCXZN_PUPqpWL8yS-19" edge="1">
          <mxGeometry relative="1" as="geometry" />
        </mxCell>
        <mxCell id="mpJxmCXZN_PUPqpWL8yS-21" value="サンプルデータに対する&lt;br&gt;メンバシップ値を算出" style="rounded=1;whiteSpace=wrap;html=1;fontFamily=Helvetica;fontSize=12;fontColor=default;strokeColor=default;fillColor=default;" parent="mpJxmCXZN_PUPqpWL8yS-83" vertex="1">
          <mxGeometry x="60" y="500" width="200" height="40" as="geometry" />
        </mxCell>
        <mxCell id="mpJxmCXZN_PUPqpWL8yS-24" value="メンバシップ値を基に重み付けし，確率的にファジィを選択" style="rounded=1;whiteSpace=wrap;html=1;fontFamily=Helvetica;fontSize=12;fontColor=default;strokeColor=default;fillColor=default;" parent="mpJxmCXZN_PUPqpWL8yS-83" vertex="1">
          <mxGeometry x="60" y="640" width="200" height="40" as="geometry" />
        </mxCell>
        <mxCell id="mpJxmCXZN_PUPqpWL8yS-29" value="" style="edgeStyle=orthogonalEdgeStyle;rounded=0;orthogonalLoop=1;jettySize=auto;html=1;fontFamily=Helvetica;fontSize=12;fontColor=default;" parent="mpJxmCXZN_PUPqpWL8yS-83" source="mpJxmCXZN_PUPqpWL8yS-21" target="mpJxmCXZN_PUPqpWL8yS-24" edge="1">
          <mxGeometry relative="1" as="geometry" />
        </mxCell>
        <mxCell id="mpJxmCXZN_PUPqpWL8yS-33" style="edgeStyle=orthogonalEdgeStyle;rounded=0;orthogonalLoop=1;jettySize=auto;html=1;entryX=1;entryY=0.5;entryDx=0;entryDy=0;fontFamily=Helvetica;fontSize=12;fontColor=default;exitX=0.5;exitY=1;exitDx=0;exitDy=0;" parent="mpJxmCXZN_PUPqpWL8yS-83" source="mpJxmCXZN_PUPqpWL8yS-31" target="mpJxmCXZN_PUPqpWL8yS-24" edge="1">
          <mxGeometry relative="1" as="geometry" />
        </mxCell>
        <mxCell id="mpJxmCXZN_PUPqpWL8yS-31" value="membershipValue&lt;br&gt;Roulette" style="shape=internalStorage;whiteSpace=wrap;html=1;backgroundOutline=1;rounded=0;fontFamily=Helvetica;fontSize=12;fontColor=default;strokeColor=default;fillColor=default;" parent="mpJxmCXZN_PUPqpWL8yS-83" vertex="1">
          <mxGeometry x="320" y="490" width="120" height="60" as="geometry" />
        </mxCell>
        <mxCell id="mpJxmCXZN_PUPqpWL8yS-32" value="" style="edgeStyle=orthogonalEdgeStyle;rounded=0;orthogonalLoop=1;jettySize=auto;html=1;fontFamily=Helvetica;fontSize=12;fontColor=default;" parent="mpJxmCXZN_PUPqpWL8yS-83" source="mpJxmCXZN_PUPqpWL8yS-21" target="mpJxmCXZN_PUPqpWL8yS-31" edge="1">
          <mxGeometry relative="1" as="geometry" />
        </mxCell>
        <mxCell id="mpJxmCXZN_PUPqpWL8yS-25" value="" style="edgeStyle=orthogonalEdgeStyle;rounded=0;orthogonalLoop=1;jettySize=auto;html=1;fontFamily=Helvetica;fontSize=12;fontColor=default;startArrow=none;" parent="mpJxmCXZN_PUPqpWL8yS-83" source="mpJxmCXZN_PUPqpWL8yS-34" target="mpJxmCXZN_PUPqpWL8yS-21" edge="1">
          <mxGeometry relative="1" as="geometry" />
        </mxCell>
        <mxCell id="mpJxmCXZN_PUPqpWL8yS-35" value="No" style="edgeStyle=orthogonalEdgeStyle;rounded=0;orthogonalLoop=1;jettySize=auto;html=1;fontFamily=Helvetica;fontSize=12;fontColor=default;endArrow=none;" parent="mpJxmCXZN_PUPqpWL8yS-83" source="mpJxmCXZN_PUPqpWL8yS-19" target="mpJxmCXZN_PUPqpWL8yS-34" edge="1">
          <mxGeometry relative="1" as="geometry">
            <mxPoint x="160" y="380" as="sourcePoint" />
            <mxPoint x="170" y="590" as="targetPoint" />
          </mxGeometry>
        </mxCell>
        <mxCell id="mpJxmCXZN_PUPqpWL8yS-41" value="" style="group" parent="mpJxmCXZN_PUPqpWL8yS-83" vertex="1" connectable="0">
          <mxGeometry x="60" y="490" width="200" height="120" as="geometry" />
        </mxCell>
        <mxCell id="mpJxmCXZN_PUPqpWL8yS-40" value="end" style="strokeWidth=2;html=1;shape=mxgraph.flowchart.loop_limit;whiteSpace=wrap;rounded=1;fontFamily=Helvetica;fontSize=12;fontColor=default;fillColor=default;flipV=1;" parent="mpJxmCXZN_PUPqpWL8yS-41" vertex="1">
          <mxGeometry y="80" width="200" height="40" as="geometry" />
        </mxCell>
        <mxCell id="mpJxmCXZN_PUPqpWL8yS-55" value="属性値を前件部として設定" style="rounded=1;whiteSpace=wrap;html=1;fontFamily=Helvetica;fontSize=12;fontColor=default;strokeColor=default;fillColor=default;" parent="mpJxmCXZN_PUPqpWL8yS-83" vertex="1">
          <mxGeometry x="480" y="800" width="200" height="40" as="geometry" />
        </mxCell>
        <mxCell id="mpJxmCXZN_PUPqpWL8yS-56" value="Yes" style="edgeStyle=orthogonalEdgeStyle;rounded=0;orthogonalLoop=1;jettySize=auto;html=1;entryX=0.5;entryY=0;entryDx=0;entryDy=0;fontFamily=Helvetica;fontSize=12;fontColor=default;" parent="mpJxmCXZN_PUPqpWL8yS-83" source="mpJxmCXZN_PUPqpWL8yS-19" target="mpJxmCXZN_PUPqpWL8yS-55" edge="1">
          <mxGeometry x="-0.8974" relative="1" as="geometry">
            <mxPoint as="offset" />
          </mxGeometry>
        </mxCell>
        <mxCell id="mpJxmCXZN_PUPqpWL8yS-57" value="Don&#39;t careを前件部として設定" style="rounded=1;whiteSpace=wrap;html=1;fontFamily=Helvetica;fontSize=12;fontColor=default;strokeColor=default;fillColor=default;" parent="mpJxmCXZN_PUPqpWL8yS-83" vertex="1">
          <mxGeometry x="720" y="880" width="200" height="40" as="geometry" />
        </mxCell>
        <mxCell id="mpJxmCXZN_PUPqpWL8yS-58" value="Yes" style="edgeStyle=orthogonalEdgeStyle;rounded=0;orthogonalLoop=1;jettySize=auto;html=1;fontFamily=Helvetica;fontSize=12;fontColor=default;" parent="mpJxmCXZN_PUPqpWL8yS-83" source="mpJxmCXZN_PUPqpWL8yS-17" target="mpJxmCXZN_PUPqpWL8yS-57" edge="1">
          <mxGeometry x="-0.9344" relative="1" as="geometry">
            <mxPoint as="offset" />
          </mxGeometry>
        </mxCell>
        <mxCell id="mpJxmCXZN_PUPqpWL8yS-61" value="選択されたファジィを&lt;br&gt;前件部として設定" style="rounded=1;whiteSpace=wrap;html=1;fontFamily=Helvetica;fontSize=12;fontColor=default;strokeColor=default;fillColor=default;" parent="mpJxmCXZN_PUPqpWL8yS-83" vertex="1">
          <mxGeometry x="60" y="720" width="200" height="40" as="geometry" />
        </mxCell>
        <mxCell id="mpJxmCXZN_PUPqpWL8yS-62" value="" style="edgeStyle=orthogonalEdgeStyle;rounded=0;orthogonalLoop=1;jettySize=auto;html=1;fontFamily=Helvetica;fontSize=12;fontColor=default;" parent="mpJxmCXZN_PUPqpWL8yS-83" source="mpJxmCXZN_PUPqpWL8yS-24" target="mpJxmCXZN_PUPqpWL8yS-61" edge="1">
          <mxGeometry relative="1" as="geometry" />
        </mxCell>
        <mxCell id="mpJxmCXZN_PUPqpWL8yS-64" value="終了" style="rounded=1;whiteSpace=wrap;html=1;fontFamily=Helvetica;fontSize=12;fontColor=default;strokeColor=default;fillColor=default;" parent="mpJxmCXZN_PUPqpWL8yS-83" vertex="1">
          <mxGeometry x="60" y="960" width="200" height="40" as="geometry" />
        </mxCell>
        <mxCell id="mpJxmCXZN_PUPqpWL8yS-67" style="edgeStyle=orthogonalEdgeStyle;rounded=0;orthogonalLoop=1;jettySize=auto;html=1;exitX=0.5;exitY=1;exitDx=0;exitDy=0;entryX=1;entryY=0.5;entryDx=0;entryDy=0;fontFamily=Helvetica;fontSize=12;fontColor=default;" parent="mpJxmCXZN_PUPqpWL8yS-83" source="mpJxmCXZN_PUPqpWL8yS-57" target="mpJxmCXZN_PUPqpWL8yS-64" edge="1">
          <mxGeometry relative="1" as="geometry" />
        </mxCell>
        <mxCell id="mpJxmCXZN_PUPqpWL8yS-65" value="" style="edgeStyle=orthogonalEdgeStyle;rounded=0;orthogonalLoop=1;jettySize=auto;html=1;fontFamily=Helvetica;fontSize=12;fontColor=default;" parent="mpJxmCXZN_PUPqpWL8yS-83" source="mpJxmCXZN_PUPqpWL8yS-61" target="mpJxmCXZN_PUPqpWL8yS-64" edge="1">
          <mxGeometry relative="1" as="geometry" />
        </mxCell>
        <mxCell id="mpJxmCXZN_PUPqpWL8yS-26" value="" style="edgeStyle=orthogonalEdgeStyle;rounded=0;orthogonalLoop=1;jettySize=auto;html=1;fontFamily=Helvetica;fontSize=12;fontColor=default;" parent="mpJxmCXZN_PUPqpWL8yS-83" source="mpJxmCXZN_PUPqpWL8yS-14" target="mpJxmCXZN_PUPqpWL8yS-16" edge="1">
          <mxGeometry relative="1" as="geometry" />
        </mxCell>
        <mxCell id="mpJxmCXZN_PUPqpWL8yS-34" value="i=0; i&amp;lt;次元数; i++" style="strokeWidth=2;html=1;shape=mxgraph.flowchart.loop_limit;whiteSpace=wrap;rounded=1;fontFamily=Helvetica;fontSize=12;fontColor=default;fillColor=default;" parent="mpJxmCXZN_PUPqpWL8yS-83" vertex="1">
          <mxGeometry x="60" y="420" width="200" height="40" as="geometry" />
        </mxCell>
        <mxCell id="mpJxmCXZN_PUPqpWL8yS-104" value="" style="edgeStyle=orthogonalEdgeStyle;rounded=0;orthogonalLoop=1;jettySize=auto;html=1;fontFamily=Helvetica;fontSize=12;fontColor=default;" parent="mpJxmCXZN_PUPqpWL8yS-83" source="mpJxmCXZN_PUPqpWL8yS-22" target="mpJxmCXZN_PUPqpWL8yS-14" edge="1">
          <mxGeometry relative="1" as="geometry" />
        </mxCell>
        <mxCell id="mpJxmCXZN_PUPqpWL8yS-22" value="sampleIndex" style="shape=parallelogram;perimeter=parallelogramPerimeter;whiteSpace=wrap;html=1;fixedSize=1;fontFamily=Helvetica;fontSize=12;fontColor=default;align=center;strokeColor=default;fillColor=default;" parent="mpJxmCXZN_PUPqpWL8yS-83" vertex="1">
          <mxGeometry x="320" y="10" width="120" height="60" as="geometry" />
        </mxCell>
        <mxCell id="mpJxmCXZN_PUPqpWL8yS-105" style="edgeStyle=orthogonalEdgeStyle;rounded=0;orthogonalLoop=1;jettySize=auto;html=1;fontFamily=Helvetica;fontSize=12;fontColor=default;entryX=1;entryY=0.5;entryDx=0;entryDy=0;exitX=0.5;exitY=1;exitDx=0;exitDy=0;" parent="mpJxmCXZN_PUPqpWL8yS-83" source="mpJxmCXZN_PUPqpWL8yS-55" target="mpJxmCXZN_PUPqpWL8yS-64" edge="1">
          <mxGeometry relative="1" as="geometry">
            <mxPoint x="590" y="940" as="targetPoint" />
          </mxGeometry>
        </mxCell>
        <mxCell id="mpJxmCXZN_PUPqpWL8yS-106" value="cilabo.fuzzy.rule.consequent.factory" style="swimlane;horizontal=0;rounded=0;fontFamily=Helvetica;fontSize=12;fontColor=#333333;strokeColor=#666666;fillColor=#f5f5f5;html=1;arcSize=0;" parent="1" vertex="1">
          <mxGeometry x="2040" y="40" width="480" height="340" as="geometry" />
        </mxCell>
        <mxCell id="mpJxmCXZN_PUPqpWL8yS-117" value="" style="edgeStyle=orthogonalEdgeStyle;rounded=0;orthogonalLoop=1;jettySize=auto;html=1;fontFamily=Helvetica;fontSize=12;fontColor=default;" parent="mpJxmCXZN_PUPqpWL8yS-106" source="mpJxmCXZN_PUPqpWL8yS-107" target="mpJxmCXZN_PUPqpWL8yS-115" edge="1">
          <mxGeometry relative="1" as="geometry" />
        </mxCell>
        <mxCell id="mpJxmCXZN_PUPqpWL8yS-107" value="信頼度を算出し，&lt;br&gt;後件部を生成" style="shape=process;whiteSpace=wrap;html=1;backgroundOutline=1;fontFamily=Helvetica;fontSize=12;fontColor=#333333;align=center;strokeColor=#666666;fillColor=#f5f5f5;" parent="mpJxmCXZN_PUPqpWL8yS-106" vertex="1">
          <mxGeometry x="60" y="20" width="200" height="40" as="geometry" />
        </mxCell>
        <mxCell id="mpJxmCXZN_PUPqpWL8yS-113" value="" style="edgeStyle=orthogonalEdgeStyle;rounded=0;orthogonalLoop=1;jettySize=auto;html=1;fontFamily=Helvetica;fontSize=12;fontColor=default;" parent="mpJxmCXZN_PUPqpWL8yS-106" source="mpJxmCXZN_PUPqpWL8yS-112" target="mpJxmCXZN_PUPqpWL8yS-107" edge="1">
          <mxGeometry relative="1" as="geometry" />
        </mxCell>
        <mxCell id="mpJxmCXZN_PUPqpWL8yS-133" style="edgeStyle=orthogonalEdgeStyle;rounded=0;orthogonalLoop=1;jettySize=auto;html=1;entryX=1;entryY=0.5;entryDx=0;entryDy=0;fontFamily=Helvetica;fontSize=12;fontColor=default;exitX=0.5;exitY=1;exitDx=0;exitDy=0;" parent="mpJxmCXZN_PUPqpWL8yS-106" source="mpJxmCXZN_PUPqpWL8yS-112" target="mpJxmCXZN_PUPqpWL8yS-115" edge="1">
          <mxGeometry relative="1" as="geometry" />
        </mxCell>
        <mxCell id="mpJxmCXZN_PUPqpWL8yS-112" value="&lt;span style=&quot;&quot;&gt;antecedentIndex&lt;/span&gt;" style="shape=parallelogram;perimeter=parallelogramPerimeter;whiteSpace=wrap;html=1;fixedSize=1;fontFamily=Helvetica;fontSize=12;fontColor=default;align=center;strokeColor=default;fillColor=default;" parent="mpJxmCXZN_PUPqpWL8yS-106" vertex="1">
          <mxGeometry x="320" y="10" width="120" height="60" as="geometry" />
        </mxCell>
        <mxCell id="mpJxmCXZN_PUPqpWL8yS-118" value="" style="edgeStyle=orthogonalEdgeStyle;rounded=0;orthogonalLoop=1;jettySize=auto;html=1;fontFamily=Helvetica;fontSize=12;fontColor=default;" parent="mpJxmCXZN_PUPqpWL8yS-106" source="mpJxmCXZN_PUPqpWL8yS-115" target="mpJxmCXZN_PUPqpWL8yS-116" edge="1">
          <mxGeometry relative="1" as="geometry" />
        </mxCell>
        <mxCell id="mpJxmCXZN_PUPqpWL8yS-115" value="結論部クラスを算出" style="shape=process;whiteSpace=wrap;html=1;backgroundOutline=1;fontFamily=Helvetica;fontSize=12;fontColor=#333333;align=center;strokeColor=#666666;fillColor=#f5f5f5;" parent="mpJxmCXZN_PUPqpWL8yS-106" vertex="1">
          <mxGeometry x="60" y="100" width="200" height="40" as="geometry" />
        </mxCell>
        <mxCell id="mpJxmCXZN_PUPqpWL8yS-132" value="" style="edgeStyle=orthogonalEdgeStyle;rounded=0;orthogonalLoop=1;jettySize=auto;html=1;fontFamily=Helvetica;fontSize=12;fontColor=default;" parent="mpJxmCXZN_PUPqpWL8yS-106" source="mpJxmCXZN_PUPqpWL8yS-116" target="mpJxmCXZN_PUPqpWL8yS-119" edge="1">
          <mxGeometry relative="1" as="geometry" />
        </mxCell>
        <mxCell id="mpJxmCXZN_PUPqpWL8yS-116" value="ルール重みを算出" style="shape=process;whiteSpace=wrap;html=1;backgroundOutline=1;fontFamily=Helvetica;fontSize=12;fontColor=#333333;align=center;strokeColor=#666666;fillColor=#f5f5f5;" parent="mpJxmCXZN_PUPqpWL8yS-106" vertex="1">
          <mxGeometry x="60" y="180" width="200" height="40" as="geometry" />
        </mxCell>
        <mxCell id="mpJxmCXZN_PUPqpWL8yS-119" value="end" style="rounded=1;whiteSpace=wrap;html=1;fontFamily=Helvetica;fontSize=12;fontColor=default;strokeColor=default;fillColor=default;" parent="mpJxmCXZN_PUPqpWL8yS-106" vertex="1">
          <mxGeometry x="60" y="260" width="200" height="40" as="geometry" />
        </mxCell>
        <mxCell id="mpJxmCXZN_PUPqpWL8yS-184" value="cilabo.fuzzy.rule.consequent.factory" style="swimlane;horizontal=0;rounded=0;fontFamily=Helvetica;fontSize=12;fontColor=#333333;strokeColor=#666666;fillColor=#f5f5f5;html=1;arcSize=0;" parent="1" vertex="1">
          <mxGeometry x="2600" y="40" width="640" height="1220" as="geometry" />
        </mxCell>
        <mxCell id="mpJxmCXZN_PUPqpWL8yS-185" value="cilabo.fuzzy.rule.consequent.factory.calcConfidence" style="swimlane;horizontal=0;rounded=0;fontFamily=Helvetica;fontSize=12;fontColor=#333333;strokeColor=#666666;fillColor=#f5f5f5;html=1;arcSize=0;" parent="mpJxmCXZN_PUPqpWL8yS-184" vertex="1">
          <mxGeometry x="50" y="20" width="560" height="740" as="geometry" />
        </mxCell>
        <mxCell id="mpJxmCXZN_PUPqpWL8yS-186" value="" style="edgeStyle=orthogonalEdgeStyle;rounded=0;orthogonalLoop=1;jettySize=auto;html=1;fontFamily=Helvetica;fontSize=12;fontColor=default;" parent="mpJxmCXZN_PUPqpWL8yS-185" source="mpJxmCXZN_PUPqpWL8yS-187" target="mpJxmCXZN_PUPqpWL8yS-191" edge="1">
          <mxGeometry relative="1" as="geometry" />
        </mxCell>
        <mxCell id="mpJxmCXZN_PUPqpWL8yS-187" value="結論部クラスを算出" style="shape=process;whiteSpace=wrap;html=1;backgroundOutline=1;fontFamily=Helvetica;fontSize=12;fontColor=#333333;align=center;strokeColor=#666666;fillColor=#f5f5f5;" parent="mpJxmCXZN_PUPqpWL8yS-185" vertex="1">
          <mxGeometry x="60" y="20" width="200" height="40" as="geometry" />
        </mxCell>
        <mxCell id="mpJxmCXZN_PUPqpWL8yS-188" value="" style="edgeStyle=orthogonalEdgeStyle;rounded=0;orthogonalLoop=1;jettySize=auto;html=1;fontFamily=Helvetica;fontSize=12;fontColor=default;" parent="mpJxmCXZN_PUPqpWL8yS-185" source="mpJxmCXZN_PUPqpWL8yS-189" target="mpJxmCXZN_PUPqpWL8yS-187" edge="1">
          <mxGeometry relative="1" as="geometry" />
        </mxCell>
        <mxCell id="mpJxmCXZN_PUPqpWL8yS-189" value="&lt;span style=&quot;&quot;&gt;antecedentIndex&lt;/span&gt;" style="shape=parallelogram;perimeter=parallelogramPerimeter;whiteSpace=wrap;html=1;fixedSize=1;fontFamily=Helvetica;fontSize=12;fontColor=default;align=center;strokeColor=default;fillColor=default;" parent="mpJxmCXZN_PUPqpWL8yS-185" vertex="1">
          <mxGeometry x="310" y="10" width="120" height="60" as="geometry" />
        </mxCell>
        <mxCell id="mpJxmCXZN_PUPqpWL8yS-190" value="" style="edgeStyle=orthogonalEdgeStyle;rounded=0;orthogonalLoop=1;jettySize=auto;html=1;fontFamily=Helvetica;fontSize=12;fontColor=default;" parent="mpJxmCXZN_PUPqpWL8yS-185" source="mpJxmCXZN_PUPqpWL8yS-191" target="mpJxmCXZN_PUPqpWL8yS-195" edge="1">
          <mxGeometry relative="1" as="geometry" />
        </mxCell>
        <mxCell id="mpJxmCXZN_PUPqpWL8yS-191" value="j=0; j&amp;lt;パターン数; j++" style="strokeWidth=2;html=1;shape=mxgraph.flowchart.loop_limit;whiteSpace=wrap;rounded=1;fontFamily=Helvetica;fontSize=12;fontColor=default;fillColor=default;" parent="mpJxmCXZN_PUPqpWL8yS-185" vertex="1">
          <mxGeometry x="60" y="100" width="200" height="40" as="geometry" />
        </mxCell>
        <mxCell id="mpJxmCXZN_PUPqpWL8yS-192" value="" style="edgeStyle=orthogonalEdgeStyle;rounded=0;orthogonalLoop=1;jettySize=auto;html=1;fontFamily=Helvetica;fontSize=12;fontColor=default;" parent="mpJxmCXZN_PUPqpWL8yS-185" source="mpJxmCXZN_PUPqpWL8yS-193" target="mpJxmCXZN_PUPqpWL8yS-202" edge="1">
          <mxGeometry relative="1" as="geometry" />
        </mxCell>
        <mxCell id="mpJxmCXZN_PUPqpWL8yS-193" value="end" style="strokeWidth=2;html=1;shape=mxgraph.flowchart.loop_limit;whiteSpace=wrap;rounded=1;fontFamily=Helvetica;fontSize=12;fontColor=default;fillColor=default;flipV=1;" parent="mpJxmCXZN_PUPqpWL8yS-185" vertex="1">
          <mxGeometry x="60" y="340" width="200" height="40" as="geometry" />
        </mxCell>
        <mxCell id="mpJxmCXZN_PUPqpWL8yS-194" value="" style="edgeStyle=orthogonalEdgeStyle;rounded=0;orthogonalLoop=1;jettySize=auto;html=1;fontFamily=Helvetica;fontSize=12;fontColor=default;" parent="mpJxmCXZN_PUPqpWL8yS-185" source="mpJxmCXZN_PUPqpWL8yS-195" target="mpJxmCXZN_PUPqpWL8yS-200" edge="1">
          <mxGeometry relative="1" as="geometry" />
        </mxCell>
        <mxCell id="mpJxmCXZN_PUPqpWL8yS-195" value="k=0; k&amp;lt;次元数; k++" style="strokeWidth=2;html=1;shape=mxgraph.flowchart.loop_limit;whiteSpace=wrap;rounded=1;fontFamily=Helvetica;fontSize=12;fontColor=default;fillColor=default;" parent="mpJxmCXZN_PUPqpWL8yS-185" vertex="1">
          <mxGeometry x="60" y="180" width="200" height="40" as="geometry" />
        </mxCell>
        <mxCell id="mpJxmCXZN_PUPqpWL8yS-196" style="edgeStyle=orthogonalEdgeStyle;rounded=0;orthogonalLoop=1;jettySize=auto;html=1;entryX=1;entryY=0.5;entryDx=0;entryDy=0;fontFamily=Helvetica;fontSize=12;fontColor=default;exitX=0.5;exitY=1;exitDx=0;exitDy=0;" parent="mpJxmCXZN_PUPqpWL8yS-185" source="mpJxmCXZN_PUPqpWL8yS-197" target="mpJxmCXZN_PUPqpWL8yS-202" edge="1">
          <mxGeometry relative="1" as="geometry" />
        </mxCell>
        <mxCell id="mpJxmCXZN_PUPqpWL8yS-197" value="メンバシップ値" style="shape=internalStorage;whiteSpace=wrap;html=1;backgroundOutline=1;rounded=0;fontFamily=Helvetica;fontSize=12;fontColor=default;strokeColor=default;fillColor=default;" parent="mpJxmCXZN_PUPqpWL8yS-185" vertex="1">
          <mxGeometry x="360" y="250" width="120" height="60" as="geometry" />
        </mxCell>
        <mxCell id="mpJxmCXZN_PUPqpWL8yS-198" value="multiple" style="edgeStyle=orthogonalEdgeStyle;rounded=0;orthogonalLoop=1;jettySize=auto;html=1;fontFamily=Helvetica;fontSize=12;fontColor=default;" parent="mpJxmCXZN_PUPqpWL8yS-185" source="mpJxmCXZN_PUPqpWL8yS-200" target="mpJxmCXZN_PUPqpWL8yS-197" edge="1">
          <mxGeometry relative="1" as="geometry" />
        </mxCell>
        <mxCell id="mpJxmCXZN_PUPqpWL8yS-199" value="" style="edgeStyle=orthogonalEdgeStyle;rounded=0;orthogonalLoop=1;jettySize=auto;html=1;fontFamily=Helvetica;fontSize=12;fontColor=default;" parent="mpJxmCXZN_PUPqpWL8yS-185" source="mpJxmCXZN_PUPqpWL8yS-200" target="mpJxmCXZN_PUPqpWL8yS-193" edge="1">
          <mxGeometry relative="1" as="geometry" />
        </mxCell>
        <mxCell id="mpJxmCXZN_PUPqpWL8yS-200" value="パターン[j]のメンバシップ値を算出" style="rounded=0;whiteSpace=wrap;html=1;fontFamily=Helvetica;fontSize=12;fontColor=default;strokeColor=default;fillColor=default;" parent="mpJxmCXZN_PUPqpWL8yS-185" vertex="1">
          <mxGeometry x="60" y="260" width="200" height="40" as="geometry" />
        </mxCell>
        <mxCell id="mpJxmCXZN_PUPqpWL8yS-201" value="" style="edgeStyle=orthogonalEdgeStyle;rounded=0;orthogonalLoop=1;jettySize=auto;html=1;fontFamily=Helvetica;fontSize=12;fontColor=default;" parent="mpJxmCXZN_PUPqpWL8yS-185" source="mpJxmCXZN_PUPqpWL8yS-202" target="mpJxmCXZN_PUPqpWL8yS-213" edge="1">
          <mxGeometry relative="1" as="geometry" />
        </mxCell>
        <mxCell id="mpJxmCXZN_PUPqpWL8yS-202" value="メンバシップ値の積和を求める" style="rounded=0;whiteSpace=wrap;html=1;fontFamily=Helvetica;fontSize=12;fontColor=default;strokeColor=default;fillColor=default;" parent="mpJxmCXZN_PUPqpWL8yS-185" vertex="1">
          <mxGeometry x="60" y="420" width="200" height="40" as="geometry" />
        </mxCell>
        <mxCell id="mpJxmCXZN_PUPqpWL8yS-203" value="" style="edgeStyle=orthogonalEdgeStyle;rounded=0;orthogonalLoop=1;jettySize=auto;html=1;fontFamily=Helvetica;fontSize=12;fontColor=default;" parent="mpJxmCXZN_PUPqpWL8yS-185" source="mpJxmCXZN_PUPqpWL8yS-204" target="mpJxmCXZN_PUPqpWL8yS-206" edge="1">
          <mxGeometry relative="1" as="geometry" />
        </mxCell>
        <mxCell id="mpJxmCXZN_PUPqpWL8yS-204" value="end" style="strokeWidth=2;html=1;shape=mxgraph.flowchart.loop_limit;whiteSpace=wrap;rounded=1;fontFamily=Helvetica;fontSize=12;fontColor=default;fillColor=default;flipV=1;" parent="mpJxmCXZN_PUPqpWL8yS-185" vertex="1">
          <mxGeometry x="60" y="600" width="200" height="40" as="geometry" />
        </mxCell>
        <mxCell id="mpJxmCXZN_PUPqpWL8yS-205" style="edgeStyle=orthogonalEdgeStyle;rounded=0;orthogonalLoop=1;jettySize=auto;html=1;fontFamily=Helvetica;fontSize=12;fontColor=default;entryX=1;entryY=0.5;entryDx=0;entryDy=0;exitX=0;exitY=0.5;exitDx=0;exitDy=0;" parent="mpJxmCXZN_PUPqpWL8yS-185" source="mpJxmCXZN_PUPqpWL8yS-210" target="mpJxmCXZN_PUPqpWL8yS-206" edge="1">
          <mxGeometry relative="1" as="geometry">
            <mxPoint x="350" y="640" as="sourcePoint" />
          </mxGeometry>
        </mxCell>
        <mxCell id="mpJxmCXZN_PUPqpWL8yS-206" value="メンバシップ値積和の総和を&lt;br&gt;クラス別に算出する" style="rounded=0;whiteSpace=wrap;html=1;fontFamily=Helvetica;fontSize=12;fontColor=default;strokeColor=default;fillColor=default;" parent="mpJxmCXZN_PUPqpWL8yS-185" vertex="1">
          <mxGeometry x="60" y="680" width="200" height="40" as="geometry" />
        </mxCell>
        <mxCell id="mpJxmCXZN_PUPqpWL8yS-207" value="menbership value list" style="swimlane;fontStyle=0;childLayout=stackLayout;horizontal=1;startSize=30;horizontalStack=0;resizeParent=1;resizeParentMax=0;resizeLast=0;collapsible=1;marginBottom=0;rounded=0;fontFamily=Helvetica;fontSize=12;fontColor=default;strokeColor=default;fillColor=default;html=1;" parent="mpJxmCXZN_PUPqpWL8yS-185" vertex="1">
          <mxGeometry x="360" y="550" width="160" height="120" as="geometry" />
        </mxCell>
        <mxCell id="mpJxmCXZN_PUPqpWL8yS-208" value="class 1:&amp;nbsp;" style="text;strokeColor=none;fillColor=none;align=left;verticalAlign=middle;spacingLeft=4;spacingRight=4;overflow=hidden;points=[[0,0.5],[1,0.5]];portConstraint=eastwest;rotatable=0;rounded=0;fontFamily=Helvetica;fontSize=12;fontColor=default;html=1;" parent="mpJxmCXZN_PUPqpWL8yS-207" vertex="1">
          <mxGeometry y="30" width="160" height="30" as="geometry" />
        </mxCell>
        <mxCell id="mpJxmCXZN_PUPqpWL8yS-209" value="class 2:&amp;nbsp;" style="text;strokeColor=none;fillColor=none;align=left;verticalAlign=middle;spacingLeft=4;spacingRight=4;overflow=hidden;points=[[0,0.5],[1,0.5]];portConstraint=eastwest;rotatable=0;rounded=0;fontFamily=Helvetica;fontSize=12;fontColor=default;html=1;" parent="mpJxmCXZN_PUPqpWL8yS-207" vertex="1">
          <mxGeometry y="60" width="160" height="30" as="geometry" />
        </mxCell>
        <mxCell id="mpJxmCXZN_PUPqpWL8yS-210" value="class 3:&amp;nbsp;" style="text;strokeColor=none;fillColor=none;align=left;verticalAlign=middle;spacingLeft=4;spacingRight=4;overflow=hidden;points=[[0,0.5],[1,0.5]];portConstraint=eastwest;rotatable=0;rounded=0;fontFamily=Helvetica;fontSize=12;fontColor=default;html=1;" parent="mpJxmCXZN_PUPqpWL8yS-207" vertex="1">
          <mxGeometry y="90" width="160" height="30" as="geometry" />
        </mxCell>
        <mxCell id="mpJxmCXZN_PUPqpWL8yS-211" value="" style="edgeStyle=orthogonalEdgeStyle;rounded=0;orthogonalLoop=1;jettySize=auto;html=1;fontFamily=Helvetica;fontSize=12;fontColor=default;" parent="mpJxmCXZN_PUPqpWL8yS-185" source="mpJxmCXZN_PUPqpWL8yS-213" target="mpJxmCXZN_PUPqpWL8yS-204" edge="1">
          <mxGeometry relative="1" as="geometry" />
        </mxCell>
        <mxCell id="mpJxmCXZN_PUPqpWL8yS-212" value="+=" style="edgeStyle=orthogonalEdgeStyle;rounded=0;orthogonalLoop=1;jettySize=auto;html=1;entryX=0;entryY=0.5;entryDx=0;entryDy=0;fontFamily=Helvetica;fontSize=12;fontColor=default;exitX=1;exitY=0.5;exitDx=0;exitDy=0;" parent="mpJxmCXZN_PUPqpWL8yS-185" source="mpJxmCXZN_PUPqpWL8yS-213" target="mpJxmCXZN_PUPqpWL8yS-208" edge="1">
          <mxGeometry relative="1" as="geometry" />
        </mxCell>
        <mxCell id="mpJxmCXZN_PUPqpWL8yS-213" value="パターン[j]のクラスに応じて&lt;br&gt;&lt;span style=&quot;&quot;&gt;menbership value list上の&lt;br&gt;&lt;/span&gt;メンバシップ値を加算していく" style="rounded=0;whiteSpace=wrap;html=1;fontFamily=Helvetica;fontSize=12;fontColor=default;strokeColor=default;fillColor=default;" parent="mpJxmCXZN_PUPqpWL8yS-185" vertex="1">
          <mxGeometry x="60" y="500" width="200" height="60" as="geometry" />
        </mxCell>
        <mxCell id="mpJxmCXZN_PUPqpWL8yS-214" value="cilabo.fuzzy.rule.consequent.factory.calcClassLabel" style="swimlane;horizontal=0;rounded=0;fontFamily=Helvetica;fontSize=12;fontColor=#333333;strokeColor=#666666;fillColor=#f5f5f5;html=1;arcSize=0;" parent="mpJxmCXZN_PUPqpWL8yS-184" vertex="1">
          <mxGeometry x="50" y="800" width="560" height="380" as="geometry" />
        </mxCell>
        <mxCell id="mpJxmCXZN_PUPqpWL8yS-215" value="No" style="edgeStyle=orthogonalEdgeStyle;rounded=0;orthogonalLoop=1;jettySize=auto;html=1;fontFamily=Helvetica;fontSize=12;fontColor=default;" parent="mpJxmCXZN_PUPqpWL8yS-214" source="mpJxmCXZN_PUPqpWL8yS-217" target="mpJxmCXZN_PUPqpWL8yS-220" edge="1">
          <mxGeometry relative="1" as="geometry" />
        </mxCell>
        <mxCell id="mpJxmCXZN_PUPqpWL8yS-216" value="Yes" style="edgeStyle=orthogonalEdgeStyle;rounded=0;orthogonalLoop=1;jettySize=auto;html=1;entryX=0.5;entryY=0;entryDx=0;entryDy=0;fontFamily=Helvetica;fontSize=12;fontColor=default;" parent="mpJxmCXZN_PUPqpWL8yS-214" source="mpJxmCXZN_PUPqpWL8yS-217" target="mpJxmCXZN_PUPqpWL8yS-221" edge="1">
          <mxGeometry x="-0.75" relative="1" as="geometry">
            <mxPoint as="offset" />
          </mxGeometry>
        </mxCell>
        <mxCell id="mpJxmCXZN_PUPqpWL8yS-217" value="信頼度が0.5以下か" style="rhombus;whiteSpace=wrap;html=1;rounded=0;fontFamily=Helvetica;fontSize=12;fontColor=default;strokeColor=default;fillColor=default;" parent="mpJxmCXZN_PUPqpWL8yS-214" vertex="1">
          <mxGeometry x="60" y="100" width="200" height="80" as="geometry" />
        </mxCell>
        <mxCell id="mpJxmCXZN_PUPqpWL8yS-218" value="" style="edgeStyle=orthogonalEdgeStyle;rounded=0;orthogonalLoop=1;jettySize=auto;html=1;fontFamily=Helvetica;fontSize=12;fontColor=default;" parent="mpJxmCXZN_PUPqpWL8yS-214" source="mpJxmCXZN_PUPqpWL8yS-219" target="mpJxmCXZN_PUPqpWL8yS-217" edge="1">
          <mxGeometry relative="1" as="geometry" />
        </mxCell>
        <mxCell id="mpJxmCXZN_PUPqpWL8yS-219" value="適合度全体に対してクラス別の&lt;br&gt;適合度の分率(信頼度)を求める" style="rounded=0;whiteSpace=wrap;html=1;fontFamily=Helvetica;fontSize=12;fontColor=default;strokeColor=default;fillColor=default;" parent="mpJxmCXZN_PUPqpWL8yS-214" vertex="1">
          <mxGeometry x="60" y="20" width="200" height="40" as="geometry" />
        </mxCell>
        <mxCell id="mpJxmCXZN_PUPqpWL8yS-226" value="" style="edgeStyle=orthogonalEdgeStyle;rounded=0;orthogonalLoop=1;jettySize=auto;html=1;fontFamily=Helvetica;fontSize=12;fontColor=default;" parent="mpJxmCXZN_PUPqpWL8yS-214" source="mpJxmCXZN_PUPqpWL8yS-220" target="mpJxmCXZN_PUPqpWL8yS-222" edge="1">
          <mxGeometry relative="1" as="geometry" />
        </mxCell>
        <mxCell id="mpJxmCXZN_PUPqpWL8yS-220" value="生成不可能ルール" style="rounded=0;whiteSpace=wrap;html=1;fontFamily=Helvetica;fontSize=12;fontColor=default;strokeColor=default;fillColor=default;" parent="mpJxmCXZN_PUPqpWL8yS-214" vertex="1">
          <mxGeometry x="60" y="220" width="200" height="40" as="geometry" />
        </mxCell>
        <mxCell id="mpJxmCXZN_PUPqpWL8yS-227" style="edgeStyle=orthogonalEdgeStyle;rounded=0;orthogonalLoop=1;jettySize=auto;html=1;entryX=1;entryY=0.5;entryDx=0;entryDy=0;fontFamily=Helvetica;fontSize=12;fontColor=default;exitX=0.5;exitY=1;exitDx=0;exitDy=0;" parent="mpJxmCXZN_PUPqpWL8yS-214" source="mpJxmCXZN_PUPqpWL8yS-221" target="mpJxmCXZN_PUPqpWL8yS-222" edge="1">
          <mxGeometry relative="1" as="geometry" />
        </mxCell>
        <mxCell id="mpJxmCXZN_PUPqpWL8yS-221" value="信頼度が最大となるクラスを&lt;br&gt;結論部クラスとして設定する" style="rounded=0;whiteSpace=wrap;html=1;fontFamily=Helvetica;fontSize=12;fontColor=default;strokeColor=default;fillColor=default;" parent="mpJxmCXZN_PUPqpWL8yS-214" vertex="1">
          <mxGeometry x="320" y="220" width="200" height="40" as="geometry" />
        </mxCell>
        <mxCell id="mpJxmCXZN_PUPqpWL8yS-222" value="end" style="rounded=1;whiteSpace=wrap;html=1;fontFamily=Helvetica;fontSize=12;fontColor=default;strokeColor=default;fillColor=default;" parent="mpJxmCXZN_PUPqpWL8yS-214" vertex="1">
          <mxGeometry x="60" y="300" width="200" height="40" as="geometry" />
        </mxCell>
        <mxCell id="mpJxmCXZN_PUPqpWL8yS-223" style="edgeStyle=orthogonalEdgeStyle;rounded=0;orthogonalLoop=1;jettySize=auto;html=1;entryX=0.5;entryY=0;entryDx=0;entryDy=0;fontFamily=Helvetica;fontSize=12;fontColor=default;" parent="mpJxmCXZN_PUPqpWL8yS-184" source="mpJxmCXZN_PUPqpWL8yS-206" target="mpJxmCXZN_PUPqpWL8yS-219" edge="1">
          <mxGeometry relative="1" as="geometry" />
        </mxCell>
        <mxCell id="mpJxmCXZN_PUPqpWL8yS-224" value="cilabo.fuzzy.rule.consequent.factory.calcRuleWeight" style="swimlane;horizontal=0;rounded=0;fontFamily=Helvetica;fontSize=12;fontColor=#333333;strokeColor=#666666;fillColor=#f5f5f5;html=1;arcSize=0;" parent="1" vertex="1">
          <mxGeometry x="3320" y="40" width="480" height="380" as="geometry" />
        </mxCell>
        <mxCell id="mpJxmCXZN_PUPqpWL8yS-229" value="" style="edgeStyle=orthogonalEdgeStyle;rounded=0;orthogonalLoop=1;jettySize=auto;html=1;fontFamily=Helvetica;fontSize=12;fontColor=default;" parent="mpJxmCXZN_PUPqpWL8yS-224" source="mpJxmCXZN_PUPqpWL8yS-225" target="mpJxmCXZN_PUPqpWL8yS-228" edge="1">
          <mxGeometry relative="1" as="geometry" />
        </mxCell>
        <mxCell id="mpJxmCXZN_PUPqpWL8yS-225" value="ルール重みを算出" style="shape=process;whiteSpace=wrap;html=1;backgroundOutline=1;fontFamily=Helvetica;fontSize=12;fontColor=#333333;align=center;strokeColor=#666666;fillColor=#f5f5f5;" parent="mpJxmCXZN_PUPqpWL8yS-224" vertex="1">
          <mxGeometry x="60" y="20" width="200" height="40" as="geometry" />
        </mxCell>
        <mxCell id="mpJxmCXZN_PUPqpWL8yS-237" value="No" style="edgeStyle=orthogonalEdgeStyle;rounded=0;orthogonalLoop=1;jettySize=auto;html=1;entryX=0.5;entryY=0;entryDx=0;entryDy=0;fontFamily=Helvetica;fontSize=12;fontColor=default;" parent="mpJxmCXZN_PUPqpWL8yS-224" source="mpJxmCXZN_PUPqpWL8yS-228" target="mpJxmCXZN_PUPqpWL8yS-230" edge="1">
          <mxGeometry relative="1" as="geometry" />
        </mxCell>
        <mxCell id="mpJxmCXZN_PUPqpWL8yS-238" value="Yes" style="edgeStyle=orthogonalEdgeStyle;rounded=0;orthogonalLoop=1;jettySize=auto;html=1;entryX=1;entryY=0.5;entryDx=0;entryDy=0;fontFamily=Helvetica;fontSize=12;fontColor=default;exitX=1;exitY=0.501;exitDx=0;exitDy=0;exitPerimeter=0;" parent="mpJxmCXZN_PUPqpWL8yS-224" source="mpJxmCXZN_PUPqpWL8yS-228" target="mpJxmCXZN_PUPqpWL8yS-233" edge="1">
          <mxGeometry x="-0.8261" relative="1" as="geometry">
            <Array as="points">
              <mxPoint x="400" y="140" />
              <mxPoint x="400" y="320" />
            </Array>
            <mxPoint as="offset" />
          </mxGeometry>
        </mxCell>
        <mxCell id="mpJxmCXZN_PUPqpWL8yS-228" value="生成不可能ルールである" style="rhombus;whiteSpace=wrap;html=1;rounded=0;fontFamily=Helvetica;fontSize=12;fontColor=default;strokeColor=default;fillColor=default;" parent="mpJxmCXZN_PUPqpWL8yS-224" vertex="1">
          <mxGeometry x="60" y="100" width="200" height="80" as="geometry" />
        </mxCell>
        <mxCell id="mpJxmCXZN_PUPqpWL8yS-235" value="" style="edgeStyle=orthogonalEdgeStyle;rounded=0;orthogonalLoop=1;jettySize=auto;html=1;fontFamily=Helvetica;fontSize=12;fontColor=default;exitX=0.5;exitY=1;exitDx=0;exitDy=0;" parent="mpJxmCXZN_PUPqpWL8yS-224" source="mpJxmCXZN_PUPqpWL8yS-230" target="mpJxmCXZN_PUPqpWL8yS-233" edge="1">
          <mxGeometry relative="1" as="geometry" />
        </mxCell>
        <mxCell id="mpJxmCXZN_PUPqpWL8yS-230" value="ルール重み=結論部クラス信頼度 - &lt;br&gt;(クラス信頼度総和 -結論部クラス信頼度)&amp;nbsp;" style="rounded=0;whiteSpace=wrap;html=1;fontFamily=Helvetica;fontSize=12;fontColor=default;strokeColor=default;fillColor=default;" parent="mpJxmCXZN_PUPqpWL8yS-224" vertex="1">
          <mxGeometry x="60" y="220" width="300" height="40" as="geometry" />
        </mxCell>
        <mxCell id="mpJxmCXZN_PUPqpWL8yS-232" value="" style="edgeStyle=orthogonalEdgeStyle;rounded=0;orthogonalLoop=1;jettySize=auto;html=1;fontFamily=Helvetica;fontSize=12;fontColor=default;" parent="mpJxmCXZN_PUPqpWL8yS-224" source="mpJxmCXZN_PUPqpWL8yS-231" target="mpJxmCXZN_PUPqpWL8yS-225" edge="1">
          <mxGeometry relative="1" as="geometry" />
        </mxCell>
        <mxCell id="mpJxmCXZN_PUPqpWL8yS-231" value="クラス別信頼度" style="shape=parallelogram;perimeter=parallelogramPerimeter;whiteSpace=wrap;html=1;fixedSize=1;fontFamily=Helvetica;fontSize=12;fontColor=default;align=center;strokeColor=default;fillColor=default;" parent="mpJxmCXZN_PUPqpWL8yS-224" vertex="1">
          <mxGeometry x="320" y="10" width="120" height="60" as="geometry" />
        </mxCell>
        <mxCell id="mpJxmCXZN_PUPqpWL8yS-233" value="end" style="rounded=1;whiteSpace=wrap;html=1;fontFamily=Helvetica;fontSize=12;fontColor=default;strokeColor=default;fillColor=default;" parent="mpJxmCXZN_PUPqpWL8yS-224" vertex="1">
          <mxGeometry x="60" y="300" width="200" height="40" as="geometry" />
        </mxCell>
      </root>
    </mxGraphModel>
  </diagram>
  <diagram id="qkI8CVx9JeoHob5OHFEm" name="ページ3">
    <mxGraphModel dx="1709" dy="919" grid="1" gridSize="10" guides="1" tooltips="1" connect="1" arrows="1" fold="1" page="1" pageScale="1" pageWidth="850" pageHeight="1100" math="0" shadow="0">
      <root>
        <mxCell id="0" />
        <mxCell id="1" parent="0" />
        <mxCell id="otFCwsmOX5APKyMDbGpw-1" value="org.uma.jmetal.component.evaluation.impl" style="swimlane;horizontal=0;rounded=0;fontFamily=Helvetica;fontSize=12;fontColor=#333333;strokeColor=#666666;fillColor=#f5f5f5;html=1;arcSize=0;" parent="1" vertex="1">
          <mxGeometry x="40" y="40" width="520" height="400" as="geometry" />
        </mxCell>
        <mxCell id="otFCwsmOX5APKyMDbGpw-10" value="" style="edgeStyle=orthogonalEdgeStyle;rounded=0;orthogonalLoop=1;jettySize=auto;html=1;fontFamily=Helvetica;fontSize=12;fontColor=default;" parent="otFCwsmOX5APKyMDbGpw-1" source="otFCwsmOX5APKyMDbGpw-2" target="otFCwsmOX5APKyMDbGpw-4" edge="1">
          <mxGeometry relative="1" as="geometry" />
        </mxCell>
        <mxCell id="otFCwsmOX5APKyMDbGpw-2" value="個体群評価" style="shape=process;whiteSpace=wrap;html=1;backgroundOutline=1;fontFamily=Helvetica;fontSize=12;fontColor=#333333;align=center;strokeColor=#666666;fillColor=#f5f5f5;" parent="otFCwsmOX5APKyMDbGpw-1" vertex="1">
          <mxGeometry x="60" y="20" width="200" height="40" as="geometry" />
        </mxCell>
        <mxCell id="otFCwsmOX5APKyMDbGpw-16" value="" style="edgeStyle=orthogonalEdgeStyle;rounded=0;orthogonalLoop=1;jettySize=auto;html=1;fontFamily=Helvetica;fontSize=12;fontColor=default;" parent="otFCwsmOX5APKyMDbGpw-1" source="otFCwsmOX5APKyMDbGpw-5" target="otFCwsmOX5APKyMDbGpw-15" edge="1">
          <mxGeometry relative="1" as="geometry" />
        </mxCell>
        <mxCell id="otFCwsmOX5APKyMDbGpw-5" value="end" style="strokeWidth=2;html=1;shape=mxgraph.flowchart.loop_limit;whiteSpace=wrap;rounded=1;fontFamily=Helvetica;fontSize=12;fontColor=default;fillColor=default;flipV=1;" parent="otFCwsmOX5APKyMDbGpw-1" vertex="1">
          <mxGeometry x="60" y="260" width="200" height="40" as="geometry" />
        </mxCell>
        <mxCell id="otFCwsmOX5APKyMDbGpw-19" value="" style="edgeStyle=orthogonalEdgeStyle;rounded=0;orthogonalLoop=1;jettySize=auto;html=1;fontFamily=Helvetica;fontSize=12;fontColor=default;" parent="otFCwsmOX5APKyMDbGpw-1" source="otFCwsmOX5APKyMDbGpw-4" target="otFCwsmOX5APKyMDbGpw-8" edge="1">
          <mxGeometry relative="1" as="geometry" />
        </mxCell>
        <mxCell id="otFCwsmOX5APKyMDbGpw-21" style="edgeStyle=orthogonalEdgeStyle;rounded=0;orthogonalLoop=1;jettySize=auto;html=1;entryX=0.5;entryY=0;entryDx=0;entryDy=0;fontFamily=Helvetica;fontSize=12;fontColor=default;exitX=0.5;exitY=1;exitDx=0;exitDy=0;exitPerimeter=0;" parent="otFCwsmOX5APKyMDbGpw-1" source="otFCwsmOX5APKyMDbGpw-4" target="otFCwsmOX5APKyMDbGpw-7" edge="1">
          <mxGeometry relative="1" as="geometry" />
        </mxCell>
        <mxCell id="otFCwsmOX5APKyMDbGpw-4" value="i=0; i&amp;lt;個体数; i++" style="strokeWidth=2;html=1;shape=mxgraph.flowchart.loop_limit;whiteSpace=wrap;rounded=1;fontFamily=Helvetica;fontSize=12;fontColor=default;fillColor=default;" parent="otFCwsmOX5APKyMDbGpw-1" vertex="1">
          <mxGeometry x="60" y="100" width="200" height="40" as="geometry" />
        </mxCell>
        <mxCell id="otFCwsmOX5APKyMDbGpw-22" style="edgeStyle=orthogonalEdgeStyle;rounded=0;orthogonalLoop=1;jettySize=auto;html=1;entryX=0.5;entryY=1;entryDx=0;entryDy=0;entryPerimeter=0;fontFamily=Helvetica;fontSize=12;fontColor=default;" parent="otFCwsmOX5APKyMDbGpw-1" source="otFCwsmOX5APKyMDbGpw-7" target="otFCwsmOX5APKyMDbGpw-5" edge="1">
          <mxGeometry relative="1" as="geometry">
            <Array as="points">
              <mxPoint x="385" y="240" />
              <mxPoint x="160" y="240" />
            </Array>
          </mxGeometry>
        </mxCell>
        <mxCell id="otFCwsmOX5APKyMDbGpw-7" value="ルール数評価" style="shape=process;whiteSpace=wrap;html=1;backgroundOutline=1;fontFamily=Helvetica;fontSize=12;fontColor=#333333;align=center;strokeColor=#666666;fillColor=#f5f5f5;" parent="otFCwsmOX5APKyMDbGpw-1" vertex="1">
          <mxGeometry x="285" y="180" width="200" height="40" as="geometry" />
        </mxCell>
        <mxCell id="otFCwsmOX5APKyMDbGpw-20" value="" style="edgeStyle=orthogonalEdgeStyle;rounded=0;orthogonalLoop=1;jettySize=auto;html=1;fontFamily=Helvetica;fontSize=12;fontColor=default;" parent="otFCwsmOX5APKyMDbGpw-1" source="otFCwsmOX5APKyMDbGpw-8" target="otFCwsmOX5APKyMDbGpw-5" edge="1">
          <mxGeometry relative="1" as="geometry" />
        </mxCell>
        <mxCell id="otFCwsmOX5APKyMDbGpw-8" value="識別率評価" style="shape=process;whiteSpace=wrap;html=1;backgroundOutline=1;fontFamily=Helvetica;fontSize=12;fontColor=#333333;align=center;strokeColor=#666666;fillColor=#f5f5f5;" parent="otFCwsmOX5APKyMDbGpw-1" vertex="1">
          <mxGeometry x="60" y="180" width="200" height="40" as="geometry" />
        </mxCell>
        <mxCell id="otFCwsmOX5APKyMDbGpw-15" value="end" style="rounded=1;whiteSpace=wrap;html=1;fontFamily=Helvetica;fontSize=12;fontColor=default;strokeColor=default;fillColor=default;" parent="otFCwsmOX5APKyMDbGpw-1" vertex="1">
          <mxGeometry x="60" y="340" width="200" height="40" as="geometry" />
        </mxCell>
        <mxCell id="otFCwsmOX5APKyMDbGpw-17" value="cilabo.gbml.objectivefunction.impl" style="swimlane;horizontal=0;rounded=0;fontFamily=Helvetica;fontSize=12;fontColor=#333333;strokeColor=#666666;fillColor=#f5f5f5;html=1;arcSize=0;startSize=23;" parent="1" vertex="1">
          <mxGeometry x="640" y="40" width="580" height="980" as="geometry" />
        </mxCell>
        <mxCell id="egAWiwCW9mHwWd3zoFbH-3" value="" style="edgeStyle=orthogonalEdgeStyle;rounded=0;orthogonalLoop=1;jettySize=auto;html=1;fontFamily=Helvetica;fontSize=12;fontColor=default;" parent="otFCwsmOX5APKyMDbGpw-17" source="otFCwsmOX5APKyMDbGpw-23" target="otFCwsmOX5APKyMDbGpw-25" edge="1">
          <mxGeometry relative="1" as="geometry" />
        </mxCell>
        <mxCell id="otFCwsmOX5APKyMDbGpw-23" value="識別率評価" style="shape=process;whiteSpace=wrap;html=1;backgroundOutline=1;fontFamily=Helvetica;fontSize=12;fontColor=#333333;align=center;strokeColor=#666666;fillColor=#f5f5f5;" parent="otFCwsmOX5APKyMDbGpw-17" vertex="1">
          <mxGeometry x="60" y="20" width="200" height="40" as="geometry" />
        </mxCell>
        <mxCell id="otFCwsmOX5APKyMDbGpw-25" value="i=0; i&amp;lt;ルール数; i++" style="strokeWidth=2;html=1;shape=mxgraph.flowchart.loop_limit;whiteSpace=wrap;rounded=1;fontFamily=Helvetica;fontSize=12;fontColor=default;fillColor=default;" parent="otFCwsmOX5APKyMDbGpw-17" vertex="1">
          <mxGeometry x="60" y="100" width="200" height="40" as="geometry" />
        </mxCell>
        <mxCell id="egAWiwCW9mHwWd3zoFbH-2" value="" style="edgeStyle=orthogonalEdgeStyle;rounded=0;orthogonalLoop=1;jettySize=auto;html=1;fontFamily=Helvetica;fontSize=12;fontColor=default;" parent="otFCwsmOX5APKyMDbGpw-17" source="egAWiwCW9mHwWd3zoFbH-1" target="otFCwsmOX5APKyMDbGpw-23" edge="1">
          <mxGeometry relative="1" as="geometry" />
        </mxCell>
        <mxCell id="egAWiwCW9mHwWd3zoFbH-1" value="pittsburgh型識別器" style="shape=parallelogram;perimeter=parallelogramPerimeter;whiteSpace=wrap;html=1;fixedSize=1;fontFamily=Helvetica;fontSize=12;fontColor=default;align=center;strokeColor=default;fillColor=default;" parent="otFCwsmOX5APKyMDbGpw-17" vertex="1">
          <mxGeometry x="320" y="10" width="120" height="60" as="geometry" />
        </mxCell>
        <mxCell id="egAWiwCW9mHwWd3zoFbH-5" value="j=0; j&amp;lt;パターン数; j++" style="strokeWidth=2;html=1;shape=mxgraph.flowchart.loop_limit;whiteSpace=wrap;rounded=1;fontFamily=Helvetica;fontSize=12;fontColor=default;fillColor=default;" parent="otFCwsmOX5APKyMDbGpw-17" vertex="1">
          <mxGeometry x="60" y="180" width="200" height="40" as="geometry" />
        </mxCell>
        <mxCell id="egAWiwCW9mHwWd3zoFbH-7" value="pittuburgh型識別器でパターン[j]に&lt;br&gt;対する識別を行い，&lt;br&gt;勝利ルールを選出する" style="rounded=0;whiteSpace=wrap;html=1;fontFamily=Helvetica;fontSize=12;fontColor=default;strokeColor=default;fillColor=default;" parent="otFCwsmOX5APKyMDbGpw-17" vertex="1">
          <mxGeometry x="60" y="260" width="200" height="60" as="geometry" />
        </mxCell>
        <mxCell id="egAWiwCW9mHwWd3zoFbH-8" value="rejected ruleである" style="rhombus;whiteSpace=wrap;html=1;rounded=0;fontFamily=Helvetica;fontSize=12;fontColor=default;strokeColor=default;fillColor=default;" parent="otFCwsmOX5APKyMDbGpw-17" vertex="1">
          <mxGeometry x="60" y="360" width="200" height="80" as="geometry" />
        </mxCell>
        <mxCell id="otFCwsmOX5APKyMDbGpw-26" value="end" style="strokeWidth=2;html=1;shape=mxgraph.flowchart.loop_limit;whiteSpace=wrap;rounded=1;fontFamily=Helvetica;fontSize=12;fontColor=default;fillColor=default;flipV=1;" parent="1" vertex="1">
          <mxGeometry x="720" y="830" width="200" height="40" as="geometry" />
        </mxCell>
        <mxCell id="egAWiwCW9mHwWd3zoFbH-6" value="end" style="strokeWidth=2;html=1;shape=mxgraph.flowchart.loop_limit;whiteSpace=wrap;rounded=1;fontFamily=Helvetica;fontSize=12;fontColor=default;fillColor=default;flipV=1;" parent="1" vertex="1">
          <mxGeometry x="740" y="760" width="200" height="40" as="geometry" />
        </mxCell>
      </root>
    </mxGraphModel>
  </diagram>
</mxfile>
